<?xml version="1.0" standalone="no"?>
<!DOCTYPE svg PUBLIC "-//W3C//DTD SVG 20010904//EN"
 "http://www.w3.org/TR/2001/REC-SVG-20010904/DTD/svg10.dtd">
<svg version="1.0" xmlns="http://www.w3.org/2000/svg"
 width="4375.000000pt" height="4375.000000pt" viewBox="0 0 4375.000000 4375.000000"
 preserveAspectRatio="xMidYMid meet">
<metadata>
Created by potrace 1.16, written by Peter Selinger 2001-2019
</metadata>
<g transform="translate(0.000000,4375.000000) scale(0.100000,-0.100000)"
fill="#000000" stroke="none">
<path d="M28091 36540 c-247 -66 -430 -237 -508 -475 -23 -69 -27 -97 -27
-205 0 -139 15 -212 65 -315 159 -324 532 -479 870 -361 150 52 293 165 368
289 175 295 134 649 -103 882 -136 134 -282 195 -476 201 -92 3 -130 0 -189
-16z m157 -207 l-3 -198 -50 3 c-99 6 -255 59 -255 87 0 22 77 129 132 184 56
57 144 121 166 121 10 0 12 -42 10 -197z m110 153 c32 -24 78 -64 101 -87 48
-50 121 -155 121 -174 0 -28 -156 -81 -255 -87 l-50 -3 -3 198 c-2 164 0 197
12 197 7 0 41 -20 74 -44z m-295 -43 c-44 -43 -97 -106 -118 -140 -21 -35 -41
-63 -45 -63 -10 0 -82 54 -103 77 -18 20 -17 22 45 68 89 67 228 132 286 134
8 1 -22 -34 -65 -76z m388 61 c30 -9 79 -29 109 -44 72 -36 182 -119 174 -131
-8 -14 -104 -89 -113 -89 -5 0 -25 28 -47 63 -21 34 -73 97 -117 140 -43 42
-75 77 -70 77 5 0 34 -7 64 -16z m-564 -299 c2 -1 -7 -25 -18 -54 -26 -69 -49
-180 -49 -237 l0 -44 -121 0 -120 0 6 58 c14 113 66 242 139 338 l31 42 65
-51 c36 -28 66 -51 67 -52z m927 35 c64 -87 125 -261 126 -357 0 -10 -31 -13
-120 -13 l-120 0 0 40 c0 53 -27 181 -51 245 l-19 50 22 15 c13 8 39 30 58 47
19 18 41 33 48 33 6 0 32 -27 56 -60z m-749 -108 c39 -12 96 -24 128 -27 l57
-6 0 -115 0 -114 -201 0 -202 0 6 73 c6 67 37 188 58 230 9 16 12 16 47 -2 20
-10 69 -28 107 -39z m570 -34 c14 -44 28 -114 32 -154 l6 -74 -202 0 -201 0 0
114 0 114 80 11 c81 12 164 37 216 64 16 8 32 13 36 11 4 -3 19 -41 33 -86z
m-813 -332 c8 -82 24 -154 49 -218 l18 -47 -32 -22 c-18 -12 -47 -36 -65 -53
l-32 -30 -30 34 c-66 79 -130 233 -145 353 l-7 58 118 -3 119 -3 7 -69z m423
-46 l0 -115 -69 -8 c-58 -6 -173 -39 -247 -71 -12 -5 -20 8 -37 61 -26 81 -42
161 -42 215 l0 38 198 -2 197 -3 0 -115z m425 73 c0 -56 -33 -200 -55 -243
l-15 -29 -46 19 c-68 30 -146 50 -216 58 l-63 7 -3 104 c-1 58 0 111 2 118 4
10 48 13 201 13 l195 0 0 -47z m266 -5 c-17 -129 -76 -274 -144 -357 l-28 -33
-66 52 -66 53 19 56 c27 77 49 183 49 237 l0 44 121 0 122 0 -7 -52z m-686
-411 c0 -107 -3 -196 -6 -200 -11 -11 -107 56 -169 118 -34 33 -80 89 -103
125 l-42 65 46 23 c58 29 176 61 232 61 l42 1 0 -193z m173 174 c71 -19 157
-55 157 -67 0 -31 -109 -175 -172 -226 -59 -48 -125 -88 -132 -81 -3 4 -6 93
-6 200 l0 193 38 0 c22 0 73 -9 115 -19z m-479 -145 c43 -70 96 -131 164 -188
l44 -37 -58 16 c-86 22 -176 66 -243 118 -33 25 -63 49 -66 54 -4 8 102 101
115 101 3 -1 23 -29 44 -64z m738 17 c67 -54 67 -51 -29 -120 -67 -48 -170
-96 -240 -111 l-42 -10 77 73 c42 40 97 104 122 144 25 39 47 71 50 71 3 0 31
-21 62 -47z"/>
<path d="M30980 32124 c-158 -29 -210 -41 -299 -71 -359 -119 -671 -384 -864
-735 -116 -210 -187 -521 -173 -758 26 -421 182 -764 477 -1044 147 -140 374
-277 561 -339 174 -58 267 -72 483 -72 226 0 291 10 486 75 247 82 430 199
614 391 194 204 321 448 387 746 32 142 32 452 0 599 -63 291 -191 538 -386
741 -221 232 -474 374 -789 444 -71 16 -136 22 -282 24 -104 2 -201 1 -215 -1z
m386 -319 c491 -84 878 -458 980 -947 18 -89 24 -290 12 -413 -4 -38 -7 -70
-8 -70 -2 0 -10 -35 -15 -60 -2 -11 -4 -20 -5 -20 -2 0 -9 -33 -15 -65 -11
-73 -101 -246 -182 -352 -174 -228 -430 -389 -725 -454 -104 -24 -375 -23
-483 0 -382 83 -697 332 -860 680 -20 43 -38 88 -39 100 -1 11 -8 31 -14 43
-7 12 -12 26 -11 30 1 4 1 10 0 13 -1 3 -4 21 -6 40 -3 19 -7 46 -10 60 -24
112 -22 340 4 475 94 472 486 852 970 939 103 19 299 19 407 1z"/>
<path d="M31508 31346 c-24 -41 -122 -212 -218 -380 l-175 -305 -327 -1 -328
0 0 -60 0 -60 362 2 362 3 232 400 c128 220 233 405 233 412 1 9 -81 63 -95
63 -2 0 -23 -33 -46 -74z"/>
<path d="M21035 31550 c-4 -6 -9 -35 -12 -64 -5 -48 -8 -55 -32 -59 -14 -3
-33 -8 -41 -11 -10 -4 -23 7 -40 35 -39 63 -52 66 -118 27 -66 -39 -73 -58
-42 -119 l22 -42 -31 -30 -30 -31 -50 23 c-27 13 -56 21 -64 18 -15 -6 -77
-106 -77 -126 0 -6 22 -27 49 -46 48 -35 48 -35 38 -73 -10 -38 -11 -39 -71
-48 l-61 -9 0 -80 0 -80 61 -9 c60 -8 61 -9 71 -47 l10 -39 -48 -35 c-27 -19
-49 -40 -49 -46 0 -20 62 -120 77 -126 8 -3 37 5 64 18 l50 23 30 -31 31 -30
-22 -42 c-31 -61 -24 -79 42 -118 67 -39 80 -36 118 26 16 26 30 39 40 36 8
-2 27 -7 43 -11 24 -5 27 -11 27 -44 0 -21 4 -50 10 -65 10 -25 12 -26 87 -23
l78 3 3 30 c6 77 12 93 36 99 13 3 31 8 39 12 10 3 25 -9 46 -39 17 -25 37
-47 46 -50 20 -8 135 59 135 79 0 8 -9 32 -20 54 -26 50 -25 54 7 86 l26 26
51 -21 c28 -11 57 -21 63 -21 15 0 73 101 73 128 0 13 -14 29 -37 44 -20 13
-41 26 -46 29 -5 4 -4 23 2 46 11 40 11 40 74 49 l62 9 0 80 0 80 -63 9 c-60
9 -62 11 -72 45 -11 40 -5 50 46 82 42 26 43 46 3 115 -34 60 -43 63 -108 33
l-45 -20 -30 30 -30 31 22 45 c12 25 22 52 22 60 0 14 -108 85 -129 85 -6 0
-27 -22 -46 -49 l-35 -49 -40 10 c-42 11 -45 17 -52 103 l-3 30 -77 3 c-46 2
-79 -1 -83 -8z m142 -30 c1 -8 4 -35 8 -61 5 -44 7 -45 50 -57 65 -17 67 -17
98 33 16 25 33 45 38 45 14 0 71 -30 91 -47 16 -14 15 -19 -10 -69 l-26 -54
40 -41 40 -40 57 26 57 25 30 -47 c17 -26 30 -51 30 -55 0 -4 -22 -24 -49 -43
l-48 -35 15 -54 15 -54 61 -8 61 -9 0 -60 0 -60 -61 -8 -61 -8 -15 -55 -16
-55 49 -32 c27 -18 49 -37 49 -43 0 -5 -13 -31 -30 -57 l-29 -46 -57 25 -57
25 -41 -40 -40 -41 27 -55 27 -55 -47 -30 c-26 -17 -52 -30 -59 -30 -7 0 -26
22 -43 49 l-31 48 -55 -15 c-60 -17 -53 -5 -68 -122 -2 -11 -18 -16 -60 -18
-54 -3 -58 -1 -67 23 -6 15 -10 43 -10 63 0 36 -1 37 -56 53 l-55 17 -32 -49
c-18 -27 -37 -49 -43 -49 -18 0 -104 51 -104 61 0 5 11 32 26 60 l25 50 -42
41 -42 41 -52 -26 c-28 -14 -56 -22 -61 -19 -15 10 -54 81 -54 97 0 7 17 24
37 37 20 13 41 26 46 29 5 4 3 30 -4 62 l-13 56 -61 8 -60 8 0 60 0 60 60 9
61 8 13 56 c7 31 9 57 4 61 -5 3 -26 16 -46 29 -20 13 -37 30 -37 39 0 14 48
103 56 103 2 0 27 -12 56 -26 l53 -26 43 41 43 41 -26 50 c-14 27 -25 54 -25
59 0 10 86 61 104 61 6 0 24 -20 39 -45 32 -51 28 -49 96 -33 l51 11 0 41 c0
82 5 87 74 84 45 -2 61 -7 63 -18z"/>
<path d="M21040 31127 c-52 -17 -126 -96 -140 -148 -34 -123 38 -246 163 -280
89 -24 193 22 243 107 48 81 35 191 -30 262 -50 56 -162 84 -236 59z m170 -37
c66 -34 116 -133 103 -203 -15 -82 -86 -154 -169 -172 -53 -11 -123 14 -169
60 -165 164 27 421 235 315z"/>
<path d="M27160 30511 c-203 -43 -391 -148 -690 -386 -184 -147 -303 -229
-387 -267 -72 -32 -185 -50 -243 -37 -19 4 -36 7 -37 5 -2 -1 20 -28 48 -59
59 -67 122 -112 196 -143 l53 -21 -58 -26 c-87 -39 -164 -57 -309 -70 -73 -6
-133 -15 -133 -20 0 -6 19 -46 43 -91 62 -120 184 -240 297 -294 123 -59 220
-76 394 -69 218 9 417 64 753 208 173 74 223 90 223 71 0 -4 -31 -61 -69 -127
-39 -66 -66 -121 -61 -123 5 -2 47 8 92 22 46 13 160 45 253 71 94 25 177 48
185 50 13 4 15 -10 15 -93 0 -88 3 -103 32 -164 17 -36 49 -84 71 -106 39 -39
41 -44 52 -137 7 -53 10 -121 6 -151 l-6 -55 27 3 c24 3 30 12 59 98 18 52 40
136 50 187 19 102 26 109 114 120 39 5 50 2 76 -20 27 -24 29 -30 28 -94 -3
-111 -68 -257 -165 -367 l-43 -48 -11 -134 c-6 -74 -8 -133 -4 -132 3 2 31 31
62 66 105 119 163 223 193 347 9 39 52 144 95 235 249 527 309 858 192 1072
-25 45 -88 113 -140 148 l-21 15 22 138 c12 75 20 137 17 137 -4 0 -44 -27
-90 -60 -84 -60 -101 -65 -101 -31 0 36 -81 177 -151 264 -39 48 -73 86 -75
84 -3 -2 1 -17 7 -33 10 -27 15 -191 6 -200 -2 -3 -28 12 -58 32 -77 51 -215
120 -306 150 -165 56 -345 68 -503 35z"/>
<path d="M16472 30474 c-461 -77 -825 -443 -897 -902 -7 -48 -12 -136 -10
-197 14 -469 315 -868 760 -1008 121 -38 229 -51 379 -44 180 8 293 38 454
121 247 128 439 360 526 635 34 109 47 201 47 336 0 658 -607 1168 -1259 1059z
m408 -244 c134 -38 252 -105 355 -202 119 -111 203 -252 246 -413 31 -115 31
-308 0 -423 -28 -106 -59 -177 -117 -263 -123 -186 -295 -305 -524 -365 -79
-20 -278 -23 -365 -5 -196 42 -391 166 -511 324 -56 73 -125 216 -150 307 -28
101 -26 330 4 433 46 159 101 255 216 376 131 136 282 216 474 251 81 15 288
4 372 -20z"/>
<path d="M16525 30014 c-117 -23 -226 -83 -314 -172 -142 -143 -204 -320 -180
-512 38 -306 275 -530 579 -547 283 -15 526 145 628 415 22 59 26 83 26 197 1
112 -2 140 -23 204 -51 154 -165 285 -315 361 -130 65 -258 83 -401 54z m290
-252 c120 -57 204 -169 226 -301 27 -169 -69 -344 -229 -419 -51 -24 -68 -27
-167 -27 -101 0 -115 3 -168 29 -279 138 -301 525 -40 693 112 72 257 81 378
25z"/>
<path d="M16613 29560 c-78 -18 -123 -75 -123 -156 0 -37 6 -60 23 -84 38 -57
71 -75 136 -75 68 1 117 31 145 88 56 120 -53 257 -181 227z"/>
<path d="M13677 30140 c-42 -13 -90 -53 -111 -92 l-18 -34 -30 29 c-27 28 -33
29 -84 24 -94 -10 -176 -72 -190 -146 -8 -36 -7 -36 -39 -15 -37 24 -105 21
-154 -7 -51 -28 -81 -74 -81 -124 0 -30 -3 -36 -16 -31 -116 44 -238 -21 -278
-148 -19 -60 -17 -136 5 -162 9 -10 2 -24 -28 -58 -86 -97 -85 -245 2 -368
l34 -46 -25 -6 c-59 -15 -83 -114 -60 -244 19 -109 50 -166 118 -222 53 -42
55 -46 45 -73 -18 -52 36 -174 103 -230 16 -14 30 -38 34 -59 14 -74 97 -150
176 -160 16 -2 32 -16 47 -40 25 -44 76 -90 146 -135 43 -28 52 -40 69 -90 41
-121 159 -231 258 -241 43 -4 53 -9 70 -38 24 -37 126 -134 143 -134 6 0 44
-16 84 -36 89 -44 165 -49 253 -15 30 12 76 21 101 21 25 0 61 5 80 12 50 17
116 64 135 97 10 17 32 34 55 41 21 7 54 26 74 42 37 31 85 113 85 146 0 10
13 31 29 46 16 15 42 56 57 89 24 53 28 75 29 152 0 74 -4 97 -22 132 l-23 42
25 48 c35 71 43 140 29 265 -14 125 -44 259 -56 252 -4 -3 -8 -47 -8 -97 0
-76 -4 -101 -22 -137 -29 -57 -65 -73 -97 -41 -25 25 -88 28 -132 6 -21 -12
-34 -13 -48 -5 -11 5 -46 10 -78 10 -48 0 -68 -5 -104 -28 -24 -16 -52 -38
-62 -50 -18 -20 -19 -20 -51 -1 -53 31 -115 35 -172 10 -27 -12 -59 -31 -71
-42 -15 -15 -28 -19 -44 -14 -83 27 -246 -16 -271 -69 -14 -31 -45 -34 -103
-7 -82 37 -151 138 -175 258 -11 51 -22 62 -46 45 -6 -4 -10 -40 -10 -87 l1
-80 -38 -3 c-33 -3 -43 2 -71 31 -70 74 -183 364 -171 438 12 68 87 110 169
95 38 -7 38 -8 81 -228 14 -71 21 -88 36 -88 22 0 25 16 40 206 l12 150 48 17
c86 31 169 135 187 235 l7 41 55 -35 c109 -67 236 -65 353 7 l49 30 52 -40
c87 -67 138 -86 236 -86 97 0 148 18 236 85 46 34 54 37 65 24 42 -51 154 -60
237 -18 94 47 176 168 159 233 -3 15 5 26 33 45 112 74 136 198 60 316 -28 43
-79 90 -98 90 -5 0 -13 10 -19 23 -50 110 -182 158 -290 106 -24 -11 -43 -24
-43 -27 0 -4 -4 -13 -9 -20 -6 -11 -14 -8 -34 12 -40 40 -98 37 -144 -9 -20
-20 -37 -34 -38 -33 -1 2 -9 24 -19 50 -40 109 -150 188 -272 196 -92 6 -136
-3 -173 -34 l-29 -24 -52 32 c-55 34 -137 46 -193 28z m873 -2105 c-23 -24
-171 -76 -269 -95 -89 -17 -201 -13 -241 9 -33 17 -98 87 -89 95 2 2 29 0 59
-6 125 -23 422 14 513 65 l42 23 3 -34 c2 -24 -3 -41 -18 -57z"/>
<path d="M42245 29471 c-75 -19 -143 -78 -165 -146 -7 -20 -10 -66 -8 -100 l4
-64 -193 -105 -192 -106 -26 26 c-81 81 -223 85 -312 9 -50 -43 -76 -102 -75
-176 0 -193 228 -292 378 -166 18 15 35 27 39 27 5 0 92 -46 194 -102 l186
-102 0 -86 c0 -77 3 -91 27 -128 75 -112 235 -133 339 -44 100 86 107 232 16
326 -84 88 -216 96 -305 21 -22 -19 -44 -35 -48 -35 -4 0 -91 46 -193 102
l-186 102 1 90 1 90 119 66 c65 36 151 83 190 104 l71 38 26 -26 c110 -110
302 -74 368 69 56 120 -13 271 -140 309 -59 17 -70 18 -116 7z m121 -67 c102
-49 130 -177 58 -264 -36 -42 -74 -60 -129 -60 -111 0 -187 87 -170 196 16
109 141 175 241 128z m-824 -424 c107 -30 160 -145 113 -244 -60 -127 -247
-122 -306 8 -24 53 -24 90 2 143 28 58 70 87 149 102 3 0 22 -4 42 -9z m824
-446 c166 -79 108 -324 -76 -324 -89 0 -170 81 -170 171 0 57 55 136 110 158
38 15 98 13 136 -5z"/>
<path d="M11285 29334 c-22 -8 -57 -31 -77 -51 -52 -51 -72 -107 -66 -187 l6
-64 -192 -104 -191 -105 -34 30 c-48 42 -91 57 -158 57 -132 -1 -224 -93 -224
-224 0 -94 43 -164 125 -202 89 -42 200 -24 260 41 l25 27 194 -106 195 -106
-5 -64 c-7 -76 8 -125 50 -172 90 -104 256 -105 342 -2 39 46 55 89 55 148 0
64 -21 115 -67 162 -84 87 -234 88 -314 4 -13 -14 -28 -26 -34 -25 -5 0 -93
46 -194 103 l-184 103 -1 90 -1 89 186 102 c102 56 190 102 196 102 5 0 18 -9
29 -21 57 -63 181 -83 259 -42 82 44 125 114 125 205 -1 158 -157 266 -305
212z m154 -59 c70 -35 110 -123 91 -195 -37 -139 -207 -175 -298 -64 -70 85
-48 194 53 255 37 23 115 25 154 4z m-793 -434 c106 -48 131 -193 48 -277 -67
-67 -172 -66 -240 3 -84 84 -62 216 46 271 54 27 92 28 146 3z m793 -436 c70
-35 110 -123 91 -195 -38 -141 -210 -175 -302 -60 -87 109 -6 270 135 270 26
0 61 -7 76 -15z"/>
<path d="M7528 28290 c-104 -17 -182 -41 -273 -85 -396 -191 -643 -661 -725
-1375 -21 -185 -29 -439 -23 -740 4 -219 3 -325 -6 -375 -48 -273 -220 -324
-553 -162 -75 36 -112 49 -115 41 -8 -22 24 -179 52 -249 56 -140 139 -258
275 -389 97 -93 230 -186 348 -242 81 -38 242 -94 273 -94 10 0 19 -2 19 -5 0
-3 -15 -35 -34 -72 -39 -76 -86 -216 -115 -343 -70 -295 -52 -746 54 -1369 18
-108 52 -308 74 -446 23 -137 44 -260 47 -272 4 -22 9 -23 103 -23 l98 0 53
-127 c29 -71 66 -154 82 -187 27 -53 29 -64 23 -125 -9 -86 -48 -270 -74 -343
-11 -32 -56 -142 -100 -246 -117 -273 -140 -394 -106 -540 20 -82 47 -134 102
-193 l44 -48 -16 -133 c-22 -175 -22 -490 -1 -661 32 -250 88 -466 186 -712
47 -119 48 -121 54 -270 8 -162 20 -305 65 -775 60 -614 84 -1043 74 -1320 -5
-129 -7 -141 -50 -259 -51 -143 -96 -322 -119 -471 -25 -166 -29 -531 -9 -835
47 -729 21 -1352 -76 -1869 -10 -56 -7 -63 36 -68 l30 -3 -3 -180 c-2 -99 1
-236 7 -305 9 -103 77 -557 96 -637 5 -21 11 -23 75 -23 l70 0 1 143 c1 78 4
173 8 210 l6 68 30 -40 c82 -107 204 -218 288 -265 126 -69 146 -72 572 -81
365 -7 423 -12 429 -33 3 -9 10 -52 17 -94 l12 -78 73 0 74 0 0 43 c0 23 3 66
6 95 l7 52 126 0 126 0 60 -40 c121 -81 188 -96 450 -105 110 -3 335 -10 500
-15 165 -6 380 -10 478 -10 l177 0 11 28 c26 66 -20 190 -103 278 -84 89 -158
139 -250 170 -231 76 -538 235 -729 375 -103 76 -256 227 -293 292 -28 47 -28
49 -22 165 25 418 78 753 197 1242 46 186 72 283 241 875 272 958 312 1187
253 1475 -43 209 -102 561 -155 915 -11 77 -27 183 -35 235 -15 100 -51 344
-65 445 -127 904 -265 1667 -391 2166 l-19 77 24 43 c42 76 76 195 76 268 0
131 -40 239 -184 506 -93 171 -168 328 -197 413 l-18 52 977 0 c869 0 982 2
1022 16 25 9 146 51 270 94 124 43 303 106 399 139 96 33 175 60 176 58 1 -1
-4 -56 -11 -122 -13 -122 -19 -571 -8 -612 l6 -23 1289 0 1288 0 -14 33 c-12
30 -6 66 72 455 47 233 83 425 81 427 -3 4 -972 -117 -1118 -139 -174 -27
-353 -40 -550 -40 -205 0 -327 12 -467 44 -86 21 -233 76 -233 89 0 3 37 19
83 36 95 33 133 66 143 121 3 21 12 46 19 54 8 9 19 86 29 195 9 99 19 207 22
240 2 33 7 83 10 110 2 28 13 145 24 260 11 116 26 278 34 360 8 83 17 195 21
250 3 55 8 115 11 133 3 19 1 32 -6 32 -5 0 -9 -3 -8 -7 0 -5 -1 -15 -5 -23
-5 -15 -18 -143 -62 -615 -14 -148 -29 -313 -35 -365 -5 -52 -19 -202 -31
-333 l-22 -237 -156 -50 c-267 -84 -705 -219 -736 -226 -51 -12 -254 -15 -227
-4 13 6 28 7 34 4 6 -4 14 -1 18 6 4 6 19 13 33 13 14 1 23 4 21 6 -2 2 104
39 237 81 132 43 243 80 246 84 4 3 -150 6 -341 6 -206 0 -345 -4 -342 -9 11
-17 -6 -41 -28 -41 -13 0 -45 11 -72 25 -43 22 -62 25 -160 25 -106 0 -111 -1
-135 -26 -13 -14 -43 -37 -67 -51 -39 -23 -51 -25 -111 -20 -79 6 -131 26
-183 67 l-37 30 -364 0 -365 0 -174 -79 c-512 -232 -808 -310 -1067 -279 -107
12 -106 12 -124 70 -35 111 -75 342 -102 581 l-6 57 188 0 c262 0 414 20 558
75 36 13 65 22 65 19 0 -2 -7 -20 -14 -39 -8 -19 -14 -35 -12 -35 1 0 27 12
57 27 30 15 56 27 59 28 55 12 70 18 70 27 0 6 7 104 16 217 14 179 19 214 44
276 40 101 45 148 25 248 -16 82 -16 96 4 349 12 144 24 279 26 298 3 19 12
125 20 234 9 110 18 203 21 208 3 4 1 8 -5 8 -12 0 -18 -33 -26 -135 -4 -44
-15 -172 -25 -285 -10 -113 -24 -278 -31 -367 -7 -90 -15 -160 -18 -157 -3 3
-15 31 -27 61 -19 52 -19 61 -7 112 34 143 35 437 2 616 -14 74 -3 274 17 324
8 20 28 45 44 56 35 23 39 36 9 30 -51 -10 -84 -72 -96 -176 l-9 -74 -21 55
c-12 30 -27 54 -33 52 -8 -2 -10 3 -6 13 3 9 2 13 -4 10 -6 -3 -10 -14 -10
-23 0 -14 -2 -14 -9 -3 -6 9 -4 19 5 28 8 8 11 20 7 26 -5 8 -8 8 -11 -1 -2
-7 -8 -9 -13 -6 -6 3 -5 12 3 22 8 10 9 13 1 9 -6 -4 -14 -3 -18 3 -3 5 -15
10 -25 10 -10 0 -31 15 -45 33 -15 17 -24 26 -20 20 11 -21 -19 -14 -33 7 -7
11 -21 20 -31 20 -10 0 -21 9 -24 21 -3 11 -15 23 -27 26 l-22 6 23 14 24 14
-25 -7 c-14 -4 -32 -9 -40 -12 -11 -4 -11 -1 3 12 17 17 15 36 -3 36 -5 0 -7
-7 -4 -15 8 -19 -6 -19 -31 -2 -18 14 -13 43 6 32 5 -3 6 1 3 10 -4 9 -13 14
-21 11 -8 -3 -12 -2 -9 3 3 5 -9 14 -27 21 -17 7 -45 18 -62 25 -44 19 -105
34 -105 27 -1 -8 -23 38 -44 91 -9 21 -20 36 -25 33 -5 -4 -7 4 -3 16 4 17 2
20 -13 14 -15 -6 -16 -4 -5 9 12 15 4 16 -86 9 -154 -10 -644 -10 -644 1 0 1
23 40 51 86 28 46 71 125 96 174 25 50 46 91 47 92 1 1 51 -12 111 -28 87 -24
124 -29 177 -26 145 9 267 108 395 317 35 58 39 69 30 100 -5 19 -7 91 -4 160
4 104 9 139 34 212 84 245 228 318 274 138 15 -60 29 -56 29 9 0 70 27 148 64
189 31 33 39 36 97 40 48 3 78 -1 119 -17 30 -12 58 -21 62 -21 4 0 15 24 24
53 34 109 28 488 -12 681 -41 203 -158 379 -327 495 -149 101 -380 175 -632
201 -132 14 -239 47 -320 100 -129 84 -275 144 -425 175 -93 19 -266 27 -342
15z m1243 -10825 c147 -366 265 -722 343 -1032 15 -56 27 -113 27 -125 1 -13
-16 -66 -36 -118 -87 -222 -138 -459 -171 -790 -13 -130 -20 -372 -22 -735 -6
-809 -45 -1213 -158 -1633 -27 -98 -33 -136 -25 -146 8 -9 8 -42 1 -112 -5
-54 -10 -181 -10 -281 0 -101 -2 -183 -5 -183 -12 0 -189 93 -275 144 -197
119 -358 258 -445 385 l-45 66 25 275 c110 1206 222 1910 445 2810 31 125 50
229 54 290 18 255 120 1434 132 1520 l7 45 29 -65 c16 -36 74 -177 129 -315z"/>
<path d="M19889 27720 c-288 -34 -541 -199 -727 -476 -152 -226 -272 -563
-336 -944 -49 -289 -73 -697 -58 -971 8 -144 11 -161 40 -223 83 -177 278
-286 540 -303 l102 -6 0 29 c0 16 -5 47 -10 69 -8 34 -37 244 -55 395 -24 200
-29 306 -29 585 -1 291 1 332 22 447 13 70 34 160 47 199 26 74 70 159 84 159
4 0 17 -14 30 -31 75 -101 238 -247 371 -331 157 -100 397 -197 578 -233 76
-16 258 -17 337 -3 19 3 20 -2 18 -142 -2 -229 -46 -494 -133 -807 l-42 -152
-32 19 c-36 20 -46 17 -64 -20 -7 -15 -10 -17 -7 -5 6 19 5 19 -11 3 -16 -16
-16 -20 1 -65 9 -26 28 -65 41 -85 40 -63 29 -185 -29 -308 -41 -88 -151 -199
-238 -240 -136 -64 -336 -78 -470 -33 -31 11 -64 18 -73 17 -9 -1 -14 2 -11 6
3 5 -8 15 -25 24 -17 8 -28 11 -25 6 3 -5 1 -11 -5 -15 -13 -8 -13 -25 1 -25
5 0 8 4 5 8 -2 4 4 8 14 8 11 0 17 -2 15 -5 -3 -2 0 -9 5 -16 6 -8 6 -12 -3
-12 -6 0 -21 -4 -32 -8 -16 -5 -17 -5 -5 4 13 9 13 11 -2 11 -9 0 -19 6 -22
13 -3 6 -3 1 0 -12 3 -13 2 -21 -3 -18 -5 3 -9 -3 -10 -13 -2 -17 -47 -70 -60
-70 -9 0 -22 -12 -156 -144 -65 -64 -122 -116 -125 -116 -4 0 -29 -25 -57 -56
-81 -90 -102 -111 -134 -130 -17 -10 -31 -23 -31 -29 0 -6 -16 -27 -36 -46
l-35 -34 43 -7 c24 -3 725 -7 1559 -7 l1515 -1 52 -26 c60 -30 92 -69 99 -122
4 -31 -14 -178 -87 -737 -6 -44 -12 -90 -14 -102 -2 -13 -2 -23 -1 -23 29 0
355 159 355 173 0 1 -4 17 -10 36 -7 26 -3 58 20 152 57 233 65 314 65 669 l0
325 -29 70 c-16 39 -32 103 -36 145 -10 88 -18 114 -56 195 -36 76 -130 171
-206 207 -113 55 -140 58 -552 58 l-379 0 -71 39 c-39 21 -125 67 -191 101
-66 34 -124 66 -128 70 -4 4 18 20 50 35 157 76 263 255 320 540 29 143 26
596 -5 805 -94 636 -245 1004 -514 1255 -237 221 -579 319 -959 275z"/>
<path d="M33927 27436 c-112 -40 -204 -153 -206 -253 l-1 -32 -43 19 c-105 46
-185 34 -259 -39 -81 -82 -102 -224 -44 -311 l25 -38 -63 -26 c-70 -30 -137
-90 -169 -151 -28 -56 -34 -160 -12 -226 25 -79 65 -129 157 -199 120 -91 151
-103 285 -108 148 -6 239 14 561 123 139 47 282 89 319 95 75 11 131 2 124
-21 -3 -8 -6 -50 -9 -94 -3 -62 1 -93 16 -137 36 -103 121 -204 219 -260 43
-24 52 -34 48 -51 -35 -154 -53 -379 -33 -416 31 -58 60 -29 112 116 70 193
78 203 171 203 46 0 60 -4 80 -25 81 -80 -57 -325 -232 -414 -59 -29 -63 -34
-78 -83 -21 -70 -40 -191 -32 -210 11 -31 208 12 287 62 89 57 157 151 175
240 18 95 18 95 138 153 217 105 262 196 202 412 -14 49 -25 93 -25 96 0 4 20
19 43 33 67 39 151 135 167 190 19 67 8 145 -29 210 -29 50 -103 128 -130 137
-9 3 -3 23 19 67 99 200 34 329 -177 348 l-73 7 0 67 c0 76 -18 147 -50 194
-48 70 -152 116 -260 116 l-56 0 -23 54 c-28 69 -103 142 -156 152 -124 23
-282 -47 -316 -141 l-12 -33 -45 49 c-62 69 -110 92 -182 87 -69 -5 -112 -33
-136 -88 l-18 -40 -22 46 c-54 112 -151 157 -257 120z"/>
<path d="M3222 25178 c-7 -7 -12 -36 -12 -64 0 -59 0 -59 -51 -69 -35 -7 -38
-5 -68 39 -18 25 -40 46 -49 46 -19 0 -117 -54 -127 -70 -3 -6 5 -34 18 -64
l25 -54 -31 -30 -30 -31 -50 25 c-27 14 -55 23 -62 20 -15 -5 -75 -107 -75
-128 0 -8 21 -29 46 -47 44 -31 46 -34 39 -69 -10 -52 -10 -52 -69 -52 -28 0
-57 -5 -64 -12 -7 -7 -12 -39 -12 -74 0 -78 13 -94 80 -94 55 0 55 -1 65 -51
7 -35 5 -38 -39 -68 -25 -18 -46 -39 -46 -47 0 -8 14 -39 31 -69 35 -62 44
-65 114 -35 l47 20 29 -31 29 -31 -25 -48 c-14 -27 -22 -56 -19 -64 7 -18 104
-76 126 -76 8 0 30 22 48 48 l33 49 41 -12 c41 -12 41 -12 44 -66 4 -67 18
-79 93 -79 73 0 89 15 89 80 0 55 1 55 51 65 35 7 38 5 68 -39 18 -25 39 -46
47 -46 22 0 121 59 128 76 3 8 -5 37 -19 63 l-24 48 32 30 32 30 49 -22 c27
-13 55 -21 62 -18 17 6 74 104 74 126 0 9 -21 30 -46 48 -44 30 -46 33 -39 68
9 50 11 51 61 51 75 0 84 10 84 88 0 40 -5 73 -12 80 -7 7 -35 12 -64 12 -49
0 -53 2 -63 31 -18 51 -13 62 34 92 25 16 45 36 45 44 0 21 -59 123 -75 129
-7 3 -35 -6 -62 -20 l-50 -25 -31 31 -30 31 22 51 c13 28 21 56 19 63 -5 15
-105 73 -126 73 -9 0 -30 -21 -48 -46 -30 -44 -33 -46 -68 -39 -50 9 -51 11
-51 61 0 75 -10 84 -88 84 -40 0 -73 -5 -80 -12z m142 -24 c3 -9 6 -37 6 -64
l0 -48 44 -11 c24 -6 50 -13 58 -16 10 -4 26 10 48 44 17 28 36 51 41 51 17 0
99 -55 99 -67 0 -7 -10 -32 -21 -57 l-22 -44 38 -45 38 -46 48 25 c27 13 54
24 61 24 7 0 26 -22 41 -50 l28 -49 -51 -37 c-27 -20 -50 -38 -50 -41 0 -15
25 -89 33 -100 5 -7 30 -13 56 -13 59 0 71 -12 71 -70 0 -25 -5 -51 -12 -58
-7 -7 -36 -12 -64 -12 l-53 0 -15 -54 c-9 -30 -16 -56 -16 -59 0 -3 23 -19 50
-37 28 -18 50 -34 50 -36 0 -16 -58 -104 -68 -104 -7 0 -34 11 -61 24 l-48 25
-41 -42 -40 -42 23 -45 c13 -25 24 -51 25 -57 0 -7 -21 -26 -47 -43 l-48 -30
-25 28 c-14 15 -32 38 -40 50 -15 22 -16 23 -70 9 l-55 -14 -5 -59 -5 -59 -65
0 -65 0 -5 59 -5 59 -50 13 c-27 7 -52 13 -55 14 -3 0 -23 -22 -43 -50 l-37
-50 -50 28 c-27 15 -50 33 -50 40 0 7 11 34 24 60 l24 47 -43 41 -43 41 -43
-23 c-24 -13 -51 -23 -59 -24 -8 0 -28 23 -44 51 l-29 52 24 19 c13 10 36 26
51 35 17 10 26 24 24 33 -3 8 -10 34 -16 58 l-11 42 -52 0 c-64 0 -77 11 -77
66 0 66 6 74 59 74 60 0 68 6 86 66 16 54 15 57 -57 101 -16 10 -28 21 -28 25
0 16 56 98 67 98 7 0 33 -10 57 -22 l45 -21 44 40 44 40 -23 44 c-13 24 -23
51 -24 59 0 14 79 70 99 70 5 0 23 -22 41 -50 18 -27 35 -50 39 -49 3 0 29 8
56 17 48 16 50 19 53 57 5 84 6 85 71 85 44 0 60 -4 65 -16z"/>
<path d="M3205 24741 c-156 -70 -169 -292 -23 -388 36 -24 51 -28 118 -28 67
0 82 4 118 28 85 56 124 166 92 262 -28 86 -113 145 -210 145 -32 0 -72 -8
-95 -19z m185 -23 c110 -56 142 -198 66 -301 -26 -35 -110 -77 -155 -77 -98 0
-189 83 -199 179 -15 160 145 271 288 199z"/>
<path d="M18193 24585 c-62 -17 -138 -54 -173 -85 l-25 -21 60 6 c74 7 169 36
260 80 l70 33 -70 0 c-38 1 -94 -6 -122 -13z"/>
<path d="M18511 24525 c-14 -41 -28 -75 -33 -75 -4 0 -8 -6 -8 -13 0 -7 -29
-42 -64 -77 -36 -35 -62 -69 -59 -74 3 -5 1 -6 -4 -3 -10 6 -80 -43 -95 -66
-4 -7 -8 -8 -8 -3 0 5 -8 3 -17 -5 -66 -53 -257 -134 -393 -167 -30 -7 -38
-16 -55 -58 -19 -45 -20 -74 -22 -394 l-1 -345 -35 -125 c-46 -161 -104 -393
-113 -447 -6 -41 -6 -41 47 -76 75 -49 175 -77 308 -85 l113 -7 -6 40 c-3 22
-15 135 -26 250 -12 116 -30 284 -41 375 -32 280 -26 319 62 377 l42 28 298 3
297 3 6 37 c11 71 6 418 -9 545 -17 147 -30 204 -59 267 -22 49 -34 64 -55 71
-18 6 23 45 80 76 l44 23 -85 0 -85 0 -24 -75z"/>
<path d="M31585 24424 c-95 -22 -150 -41 -206 -71 -317 -165 -462 -528 -345
-865 79 -226 288 -410 521 -458 94 -20 239 -16 329 9 301 83 505 333 523 642
16 264 -99 493 -319 637 -114 74 -216 104 -363 108 -66 2 -129 1 -140 -2z
m103 -221 l-3 -198 -45 3 c-87 6 -260 62 -260 84 0 18 73 122 123 176 48 50
158 132 179 132 5 0 7 -89 6 -197z m65 185 c80 -42 194 -158 256 -260 l22 -37
-48 -24 c-50 -25 -146 -51 -220 -60 l-43 -5 0 199 c0 109 3 199 6 199 3 0 15
-5 27 -12z m-245 -70 c-41 -40 -94 -103 -118 -140 -23 -38 -45 -68 -48 -68
-11 0 -112 81 -112 90 0 14 90 87 144 116 50 28 169 72 195 73 7 1 -20 -32
-61 -71z m442 34 c74 -29 125 -59 189 -111 l44 -36 -54 -47 c-29 -27 -58 -48
-63 -48 -6 1 -29 30 -51 66 -22 36 -76 100 -120 141 -76 73 -78 75 -45 68 19
-4 64 -19 100 -33z m-647 -257 l27 -20 -21 -60 c-24 -69 -49 -191 -49 -241 l0
-34 -119 0 -119 0 5 43 c14 123 64 252 134 345 l40 53 37 -33 c20 -18 49 -42
65 -53z m997 -57 c42 -80 80 -206 80 -265 l0 -33 -115 0 c-63 0 -115 1 -115 3
0 46 -28 189 -49 253 -16 46 -26 84 -22 84 4 0 33 22 66 49 l60 49 27 -32 c15
-17 46 -66 68 -108z m-770 -42 c36 -8 86 -18 113 -21 l47 -6 0 -115 0 -114
-200 0 -200 0 0 29 c0 47 26 171 50 233 l21 56 52 -23 c29 -13 81 -31 117 -39z
m538 1 c20 -53 37 -133 46 -214 l4 -43 -199 0 -199 0 0 114 0 115 48 6 c80 11
165 33 212 54 25 11 50 20 57 20 6 1 20 -23 31 -52z m-804 -362 c6 -65 37
-194 60 -245 5 -11 -12 -31 -59 -68 l-65 -52 -39 50 c-78 99 -144 291 -132
383 1 4 52 7 115 7 l113 0 7 -75z m424 -42 l-3 -118 -63 -7 c-75 -8 -161 -32
-215 -60 -22 -11 -43 -16 -47 -11 -22 23 -70 219 -70 284 l0 29 200 0 201 0
-3 -117z m423 112 c17 -16 -47 -315 -67 -315 -3 0 -23 9 -45 21 -53 27 -181
59 -236 59 l-43 0 0 120 0 120 193 0 c107 0 196 -2 198 -5z m269 -28 c0 -43
-32 -168 -60 -231 -11 -27 -41 -78 -66 -113 l-45 -63 -68 52 -67 51 22 61 c22
60 37 132 49 229 l6 47 115 0 114 0 0 -33z m-690 -438 l0 -200 -42 23 c-83 45
-236 209 -264 282 -11 30 166 94 264 95 l42 1 0 -201z m169 185 c36 -9 90 -27
119 -40 l54 -24 -24 -41 c-53 -94 -164 -208 -257 -262 l-31 -18 0 200 0 201
37 0 c20 0 66 -7 102 -16z m-460 -166 c29 -43 84 -107 124 -143 l71 -65 -54
16 c-74 22 -145 50 -178 71 -49 31 -132 98 -132 106 0 13 109 101 116 94 1 -1
25 -37 53 -79z m727 35 l57 -47 -43 -39 c-57 -50 -156 -105 -232 -128 -89 -28
-96 -24 -38 24 53 43 163 179 175 217 3 11 10 20 15 20 4 0 34 -21 66 -47z"/>
<path d="M28490 24275 c0 -8 7 -32 15 -52 13 -33 554 -1526 910 -2510 80 -219
133 -353 141 -353 9 0 3 29 -23 98 -65 179 -184 506 -229 632 -46 128 -151
415 -184 505 -33 88 -127 345 -178 490 -28 77 -55 151 -61 165 -10 24 -320
880 -357 988 -18 50 -34 68 -34 37z"/>
<path d="M28393 24250 c-22 -13 -36 -32 -44 -59 -13 -44 -12 -49 131 -436 27
-71 85 -233 130 -360 45 -126 143 -396 217 -600 74 -203 213 -586 309 -850 96
-264 186 -496 199 -516 29 -45 78 -76 130 -84 53 -8 71 4 55 35 -7 12 -34 82
-60 154 -64 175 -143 387 -195 521 -60 154 -97 254 -94 257 1 2 -8 22 -20 46
-12 23 -19 42 -16 42 3 0 1 9 -5 21 -11 20 -139 352 -187 484 -13 39 -42 115
-63 170 -21 55 -73 192 -115 305 -42 113 -82 219 -90 235 -12 26 -171 454
-215 575 -28 81 -31 82 -67 60z"/>
<path d="M37270 24003 c-81 -31 -112 -96 -111 -241 0 -59 -2 -739 -5 -1512 -3
-991 -1 -1421 7 -1458 14 -69 69 -178 119 -235 55 -62 148 -123 227 -147 87
-27 218 -27 304 0 35 10 66 17 69 14 7 -8 4 -269 -4 -386 -28 -388 -114 -764
-257 -1128 -141 -360 -431 -798 -649 -980 l-48 -41 -74 74 c-112 112 -269 222
-406 284 l-61 28 67 55 c176 146 288 354 334 624 17 105 20 149 15 336 -3 118
-10 254 -17 302 -12 85 -13 87 -34 74 -20 -13 -95 -40 -106 -38 -3 0 -9 -3
-15 -8 -5 -4 -53 -21 -105 -38 -305 -96 -593 -147 -910 -158 -389 -15 -731 45
-1055 184 -89 38 -90 39 -120 98 l-30 61 -360 -134 -360 -133 -510 -25 c-674
-33 -954 -51 -1046 -69 -42 -8 -170 -24 -285 -36 -371 -38 -505 -82 -619 -201
-106 -111 -159 -267 -175 -513 -30 -474 -239 -1535 -672 -3406 l-130 -564 23
-20 c87 -71 319 -138 579 -165 103 -11 427 -17 436 -8 3 3 17 70 30 149 55
328 167 696 357 1172 96 242 112 276 118 250 8 -31 47 -521 82 -1029 l22 -310
40 -15 c31 -11 89 -14 245 -14 188 0 214 2 315 26 61 15 131 34 157 42 l47 15
25 -112 c59 -256 71 -419 37 -494 -25 -55 -90 -124 -170 -181 -51 -36 -71 -45
-99 -44 -31 3 -42 -4 -97 -60 -61 -63 -152 -209 -231 -370 -38 -76 -38 -78
-26 -134 33 -158 139 -268 257 -268 207 0 336 321 236 585 -20 53 -62 115 -93
137 -10 7 -18 17 -18 21 0 14 193 170 288 234 269 180 697 340 1092 407 194
33 258 35 305 11 52 -28 132 -28 185 -1 48 25 63 25 225 1 363 -54 748 -180
1038 -340 118 -66 284 -189 387 -287 l79 -76 -23 -36 c-50 -81 -61 -129 -61
-267 0 -146 17 -207 79 -288 148 -194 382 -99 441 178 8 39 15 82 15 98 0 23
4 27 30 27 29 0 30 -1 30 -48 0 -158 102 -320 222 -353 84 -22 179 24 242 120
135 204 78 544 -106 635 -59 29 -98 32 -155 12 l-40 -14 -18 36 c-58 123 -220
337 -360 477 -452 452 -1043 710 -1782 776 l-133 12 0 349 0 348 93 0 92 0 59
158 c33 86 63 162 68 169 5 6 24 15 41 18 106 23 260 141 322 249 30 52 65
163 65 208 l0 28 1019 0 1019 0 20 -32 c12 -18 19 -34 18 -36 -2 -2 -19 6 -37
17 -19 12 -42 21 -51 21 -41 0 -12 -32 80 -88 87 -54 302 -207 302 -215 0 -2
-33 2 -72 9 -85 15 -356 18 -378 4 -32 -20 11 -28 185 -33 276 -7 345 -32 503
-182 56 -53 99 -102 96 -107 -4 -6 -2 -8 3 -5 6 4 19 -3 29 -15 11 -12 13 -18
5 -13 -10 5 -12 4 -7 -3 4 -7 13 -12 19 -12 7 0 18 -9 25 -20 7 -11 19 -20 27
-20 22 0 18 -15 -7 -34 -23 -16 -23 -16 -1 -6 39 18 39 10 0 -14 -22 -13 -48
-39 -59 -57 -11 -19 -39 -56 -62 -84 -53 -63 -96 -128 -96 -142 0 -17 -39 -26
-55 -13 -8 6 -20 8 -26 4 -9 -5 -10 -2 -6 9 3 9 2 19 -2 21 -5 3 -8 -4 -7 -15
1 -15 12 -25 40 -34 65 -23 101 -68 145 -185 22 -58 38 -106 36 -108 -2 -2
-45 -13 -97 -24 -102 -22 -173 -51 -182 -74 -5 -13 37 -301 50 -346 3 -10 27
-27 53 -39 l48 -22 27 -141 c16 -78 50 -253 77 -391 27 -137 54 -275 60 -305
6 -30 18 -63 26 -72 18 -20 108 -56 171 -68 36 -6 45 -5 50 9 3 9 9 19 14 22
5 3 5 16 0 29 -5 14 -5 40 -1 60 13 52 19 260 8 260 -5 0 -9 23 -9 51 0 27 3
48 8 46 4 -3 7 23 8 56 0 34 2 80 4 101 2 24 -1 41 -8 44 -7 2 -11 22 -11 50
l2 47 6 -40 7 -40 5 45 c4 26 1 51 -5 59 -6 8 -6 12 -1 9 6 -4 10 10 10 33 1
22 -2 33 -7 26 -5 -8 -8 -3 -8 13 0 24 2 25 60 22 l60 -4 0 -38 c0 -22 -6 -45
-14 -52 -10 -10 -11 -20 -3 -41 5 -16 7 -54 3 -85 -9 -82 -14 -283 -5 -247 5
24 7 20 8 -25 0 -36 -2 -50 -8 -41 -6 9 -9 -24 -9 -90 0 -57 -1 -126 -2 -154
-1 -27 0 -65 2 -82 2 -18 2 -34 -1 -36 -3 -2 1 -2 9 0 225 60 607 89 835 62
85 -9 91 -9 106 10 9 11 20 42 24 68 10 71 174 838 178 838 15 0 78 42 81 54
12 40 50 280 51 315 0 36 -3 41 -43 61 -24 12 -79 30 -123 40 -43 10 -79 20
-79 23 0 9 64 117 87 149 26 34 83 66 120 66 18 0 21 3 14 10 -17 17 -13 27 7
21 9 -2 7 1 -5 7 -27 14 -31 31 -5 22 16 -6 15 -5 -1 15 -11 12 -16 26 -11 33
5 9 2 10 -9 6 -23 -9 -21 5 3 36 21 27 27 57 10 57 -5 0 -10 5 -10 11 0 11
-53 81 -120 159 -17 19 -60 73 -97 120 -37 47 -77 93 -88 102 -20 17 -20 17
10 19 24 1 26 3 7 6 -23 5 -74 89 -76 128 -1 14 -8 19 -21 18 -53 -7 -147 -22
-149 -25 -2 -2 0 -34 4 -73 7 -75 3 -105 -12 -105 -5 0 -27 -9 -48 -19 -24
-11 -42 -15 -46 -10 -4 6 -11 6 -19 -1 -10 -9 -16 -6 -25 10 -10 18 -14 19
-28 8 -12 -10 -14 -10 -8 0 4 7 10 28 12 48 8 68 154 554 178 592 3 6 41 -8
84 -29 146 -73 291 -75 436 -5 124 60 147 93 90 131 -13 8 -24 21 -24 28 0 13
-80 179 -91 187 -3 3 -9 17 -13 33 -3 15 -13 27 -21 27 -14 0 -20 17 -16 48 1
6 -6 12 -16 12 -15 0 -16 2 -3 10 23 15 -67 10 -134 -7 -33 -8 -77 -23 -98
-34 -21 -11 -38 -15 -38 -10 0 21 203 411 213 411 7 0 34 -7 61 -15 70 -21
161 -19 216 6 55 25 125 91 152 144 11 22 40 69 63 105 41 64 54 105 29 96 -7
-3 -10 2 -7 14 3 10 -1 21 -8 25 -8 5 -10 4 -5 -3 4 -7 2 -12 -4 -12 -12 0
-71 30 -80 41 -3 3 -21 14 -40 25 -19 10 -42 24 -50 30 -8 7 -32 21 -52 33
-21 12 -55 30 -75 42 -21 12 -45 27 -53 33 -18 15 -152 95 -195 116 -16 8 -32
17 -35 20 -15 16 -64 50 -73 50 -5 0 -3 -8 4 -17 8 -9 9 -14 3 -10 -8 5 -14
-11 -19 -48 -4 -37 -23 -87 -57 -152 -47 -89 -51 -104 -51 -163 0 -85 28 -143
110 -230 l63 -67 -107 -211 -108 -212 -32 68 c-18 37 -55 92 -84 122 -28 30
-48 48 -44 40 3 -8 -1 -6 -9 4 -15 18 -21 15 -17 -8 1 -5 -6 -3 -16 4 -10 8
-15 11 -11 6 9 -11 -34 -46 -56 -46 -9 0 -16 -4 -16 -10 0 -5 -7 -10 -15 -10
-9 0 -28 -8 -43 -18 -42 -28 -63 -40 -119 -67 -29 -15 -55 -31 -58 -36 -4 -5
-11 -6 -17 -3 -24 15 2 -102 38 -175 60 -122 187 -224 307 -246 20 -4 37 -9
37 -12 0 -3 -41 -131 -91 -286 -50 -155 -92 -286 -93 -292 -2 -5 -11 6 -21 25
-17 35 -81 119 -99 131 -7 6 -41 4 -41 -1 0 -1 -10 -3 -22 -4 -18 -2 -20 0
-11 11 8 10 13 11 18 2 5 -7 10 -8 14 -1 12 19 -22 20 -40 1 -9 -10 -22 -19
-28 -19 -6 0 -32 -11 -57 -23 -39 -19 -50 -21 -64 -11 -14 10 -23 9 -51 -4
-18 -9 -36 -25 -40 -34 -4 -13 -16 -18 -39 -18 -19 0 -36 -4 -40 -9 -3 -5 -27
-17 -54 -26 -55 -18 -78 -39 -83 -75 -2 -17 -9 -25 -21 -24 -13 2 -16 -3 -11
-18 4 -13 2 -18 -4 -14 -5 3 -12 -1 -16 -9 -3 -8 -1 -17 4 -20 6 -4 10 -1 10
6 0 7 3 10 6 6 3 -3 2 -13 -4 -22 -8 -16 -10 -16 -15 -1 -4 9 -6 19 -6 22 0 3
-6 11 -14 17 -8 7 -24 41 -37 77 -12 36 -43 106 -69 156 l-46 91 35 -8 c54
-13 137 -10 174 5 28 12 34 20 39 57 3 24 13 68 22 97 16 52 17 53 48 47 18
-4 72 -20 121 -37 79 -26 94 -29 127 -19 85 26 193 163 217 277 11 48 8 55
-33 76 -114 58 -233 123 -249 137 -14 12 -20 13 -23 3 -3 -6 -8 -10 -13 -7
-13 8 -88 -83 -113 -137 -12 -26 -24 -48 -28 -48 -3 0 -31 53 -62 118 -30 64
-70 143 -88 174 l-32 57 55 59 c65 70 88 115 95 185 4 46 1 60 -32 122 -40 73
-65 150 -65 198 l0 28 -40 -22 c-22 -13 -40 -26 -40 -30 0 -4 -8 -9 -17 -13
-10 -3 -25 -10 -33 -15 -8 -6 -54 -33 -102 -62 -49 -29 -88 -57 -88 -62 0 -6
-6 -2 -14 9 -14 19 -14 19 -13 -1 1 -12 -4 -20 -13 -20 -23 -1 -41 -15 -34
-27 4 -7 2 -8 -5 -4 -9 6 -8 13 3 31 144 220 331 600 444 905 388 1046 424
2304 97 3365 l-43 140 -6 815 c-4 448 -10 883 -14 965 -8 169 -16 191 -83 226
-36 18 -61 19 -416 18 -208 0 -385 -3 -393 -6z m291 -6713 c39 -73 113 -145
165 -159 53 -15 89 -14 158 4 55 14 59 14 71 -2 18 -24 165 -320 165 -331 0
-5 -24 2 -52 16 -57 27 -197 45 -184 23 4 -6 2 -11 -4 -11 -6 0 -9 -4 -6 -9 3
-5 -1 -14 -9 -21 -8 -6 -25 -33 -38 -58 -14 -26 -41 -78 -61 -116 -20 -39 -42
-73 -48 -78 -10 -6 -9 -8 2 -8 12 -1 11 -3 -3 -14 -16 -13 -15 -16 20 -43 21
-16 50 -37 65 -46 19 -12 47 -56 87 -140 91 -184 90 -185 -35 -76 -143 126
-238 202 -353 283 -78 55 -100 77 -136 135 l-43 70 37 24 c21 14 45 41 55 60
22 47 23 125 2 165 -19 37 -70 78 -108 87 l-28 7 31 37 c17 20 72 87 121 149
50 61 92 112 94 112 1 0 17 -27 35 -60z m-4203 -655 c36 -193 182 -357 370
-415 51 -16 57 -21 73 -61 l17 -45 -67 3 c-36 2 -218 10 -404 18 -302 14 -341
14 -367 0 -78 -41 -80 -185 -3 -226 23 -13 92 -11 769 18 l140 6 13 -31 13
-31 89 -3 c49 -2 89 -6 89 -10 0 -5 0 -161 0 -347 l0 -339 -92 -7 c-385 -28
-715 -106 -1020 -238 -71 -30 -128 -52 -128 -48 0 4 -7 59 -15 121 -53 402
-70 776 -60 1303 l7 397 282 0 283 0 11 -65z m4855 -1586 l47 -3 -2 -75 -2
-76 -3 65 c-7 114 -18 84 -19 -51 -1 -89 2 -129 10 -129 6 0 5 -4 -3 -9 -7 -5
-10 -14 -7 -20 5 -7 -5 -11 -31 -11 -67 0 -68 3 -66 160 2 125 0 140 -15 141
-10 1 -7 4 8 8 14 5 28 7 31 5 3 -2 26 -4 52 -5z"/>
<path d="M15220 22801 c-5 -11 -10 -36 -10 -55 l0 -36 -100 0 c-154 0 -184
-23 -212 -165 -9 -49 -18 -96 -18 -102 0 -10 182 -13 875 -13 622 0 875 -3
875 -11 0 -43 -234 -1173 -250 -1207 -11 -23 -34 -51 -52 -62 l-33 -20 135 0
c116 0 139 3 167 20 66 40 65 35 67 539 0 251 0 565 -2 698 -3 225 -4 243 -23
267 -33 42 -58 50 -174 56 l-110 5 -3 47 c-3 42 -6 49 -29 54 -34 9 -53 -16
-53 -68 l0 -38 -89 0 -90 0 -3 46 c-6 86 -68 88 -78 3 l-5 -44 -90 0 -90 0 -5
50 c-4 44 -8 50 -29 53 -32 5 -51 -21 -51 -68 l0 -36 -89 -1 -90 -2 -3 46 c-5
82 -70 87 -76 7 -2 -21 -8 -41 -13 -45 -5 -3 -47 -5 -92 -5 l-82 1 -3 45 c-2
24 -9 48 -15 52 -21 14 -46 8 -57 -11z"/>
<path d="M10340 22350 c-63 -21 -142 -50 -175 -63 l-60 -26 233 0 234 -1 -26
46 c-14 26 -26 55 -26 65 0 29 -49 24 -180 -21z"/>
<path d="M28850 22328 c-62 -99 -214 -206 -368 -258 -269 -90 -671 -102 -1144
-34 -58 8 -388 50 -733 94 -626 79 -646 82 -689 126 -9 9 -18 15 -20 13 -6 -8
-110 -810 -131 -1022 l-7 -67 1598 2 1599 3 7 75 c4 41 7 183 8 315 1 212 -5
323 -26 485 -10 77 -55 295 -62 302 -4 3 -18 -12 -32 -34z"/>
<path d="M15203 22177 l-103 -31 0 -58 c0 -65 0 -65 74 -43 64 19 66 19 66 -8
0 -19 -96 -514 -115 -595 -6 -22 -4 -23 67 -20 l72 3 78 385 c42 212 77 388
78 393 1 17 -122 3 -217 -26z"/>
<path d="M15753 22191 c-106 -36 -176 -107 -191 -191 -11 -66 -5 -94 32 -136
l33 -38 -59 -38 c-47 -30 -64 -49 -83 -91 -77 -164 27 -290 237 -289 176 1
324 104 343 241 8 58 -5 88 -61 144 -20 20 -33 37 -27 37 21 0 97 76 114 114
39 87 16 172 -60 223 -69 46 -185 57 -278 24z m174 -121 c79 -48 39 -162 -68
-190 -89 -24 -163 14 -163 85 0 96 141 161 231 105z m-94 -319 c86 -20 115
-97 60 -162 -36 -42 -79 -59 -153 -59 -97 0 -144 36 -136 104 6 52 49 95 112
112 60 16 69 16 117 5z"/>
<path d="M24372 21782 l3 -337 33 -67 c54 -109 140 -185 252 -224 46 -15 82
-18 222 -16 155 1 171 3 235 28 55 22 82 42 145 105 l76 77 74 4 c140 7 266
96 335 235 35 71 37 82 37 167 0 79 -3 98 -26 141 -54 104 -140 158 -252 159
-39 1 -83 -3 -98 -8 -27 -8 -28 -7 -28 33 l0 41 -505 0 -506 0 3 -338z m1225
137 c52 -33 87 -114 79 -182 -15 -120 -103 -227 -218 -266 -34 -12 -67 -21
-72 -21 -13 0 -9 461 4 474 31 31 153 28 207 -5z"/>
<path d="M40161 21961 c-9 -6 -19 -41 -25 -92 l-11 -82 -54 -14 c-30 -7 -57
-10 -60 -5 -53 82 -87 122 -103 122 -29 0 -167 -83 -174 -104 -4 -12 7 -46 27
-88 l33 -69 -40 -40 -40 -40 -73 33 c-55 24 -77 29 -89 21 -22 -13 -100 -142
-101 -166 -1 -10 24 -36 62 -63 34 -25 63 -49 64 -52 2 -4 -3 -29 -10 -57
l-13 -50 -65 -7 c-118 -13 -109 -3 -109 -123 0 -104 0 -106 26 -115 14 -6 49
-10 77 -10 62 0 72 -6 80 -45 4 -16 9 -39 13 -51 5 -17 -6 -29 -60 -68 -36
-26 -66 -54 -66 -63 0 -9 21 -52 46 -95 54 -92 62 -94 156 -47 l61 31 40 -40
40 -41 -32 -73 c-17 -41 -29 -81 -26 -89 8 -20 146 -99 174 -99 15 0 33 19 63
65 28 41 48 63 58 60 8 -2 34 -9 57 -15 l41 -10 7 -76 c5 -44 13 -81 22 -90
10 -10 39 -14 102 -14 110 0 119 7 123 105 l3 70 50 17 c28 9 53 17 56 17 3 1
26 -28 52 -64 34 -47 53 -65 69 -65 13 0 55 20 93 43 84 51 90 68 46 155 l-30
59 42 41 42 40 65 -29 c35 -16 74 -28 85 -27 25 4 105 132 105 169 0 22 -12
34 -64 68 l-64 42 17 57 17 57 71 6 c99 7 103 12 103 124 0 66 -4 96 -14 104
-7 6 -47 14 -88 17 l-75 7 -15 53 c-17 61 -20 56 65 113 37 25 47 38 47 59 -1
39 -80 166 -107 170 -12 2 -49 -11 -83 -28 l-63 -32 -38 38 c-22 21 -39 43
-39 49 0 5 14 39 29 75 20 44 27 69 21 81 -11 20 -146 99 -170 99 -11 0 -37
-27 -65 -66 -35 -48 -51 -64 -63 -59 -10 4 -30 9 -47 12 -49 9 -55 20 -55 94
0 89 -13 99 -125 99 -44 0 -86 -4 -94 -9z m177 -33 c7 -7 12 -26 12 -44 0 -17
3 -51 6 -75 l6 -44 74 -21 74 -21 36 50 c19 27 38 55 40 62 11 27 35 23 99
-13 40 -23 65 -44 65 -54 0 -10 -14 -47 -32 -82 l-32 -65 56 -56 56 -56 72 36
c56 28 75 34 86 24 19 -15 74 -113 74 -130 0 -8 -30 -33 -66 -57 -56 -37 -65
-47 -60 -65 4 -12 12 -42 19 -67 18 -67 22 -70 88 -70 93 0 99 -6 99 -99 0
-88 -2 -90 -73 -92 -88 -3 -99 -9 -113 -64 -7 -27 -15 -60 -19 -71 -6 -18 4
-29 59 -69 36 -26 66 -52 66 -57 0 -22 -71 -138 -84 -138 -8 0 -44 14 -81 31
l-67 32 -54 -55 -55 -54 31 -65 c16 -35 30 -71 30 -81 0 -15 -114 -88 -138
-88 -5 0 -29 28 -52 63 -24 34 -44 63 -46 65 -1 2 -36 -5 -77 -15 l-76 -18 -6
-75 c-4 -41 -8 -81 -10 -87 -3 -9 -29 -13 -85 -13 -93 0 -89 -4 -99 101 l-6
72 -70 18 c-38 10 -73 19 -76 19 -4 0 -26 -29 -50 -65 -24 -35 -49 -65 -56
-65 -14 0 -130 66 -138 80 -3 5 11 42 31 81 l36 72 -56 56 -55 55 -70 -33
c-38 -19 -76 -31 -84 -28 -8 3 -30 34 -50 69 -41 73 -41 71 46 130 43 30 57
44 52 56 -3 10 -13 42 -22 73 -15 54 -18 57 -52 63 -20 3 -54 6 -76 6 -23 0
-46 5 -53 12 -17 17 -16 154 1 165 6 4 46 10 87 13 l75 5 16 60 c9 33 20 67
23 76 5 12 -10 27 -58 58 -35 23 -66 48 -69 54 -6 15 70 147 84 147 5 0 41
-16 79 -35 l69 -35 54 57 55 57 -33 72 c-39 84 -38 85 48 133 68 37 68 37 124
-50 21 -32 43 -57 48 -55 6 2 40 12 76 22 l66 18 6 77 c3 43 8 82 12 88 9 15
148 14 163 -1z"/>
<path d="M40180 21377 c-94 -26 -176 -100 -204 -185 -24 -70 -21 -177 8 -237
51 -108 151 -169 276 -170 62 0 85 5 132 28 140 69 204 232 148 381 -53 140
-217 223 -360 183z m157 -32 c68 -20 143 -88 173 -157 31 -73 25 -175 -14
-243 -29 -48 -93 -101 -149 -122 -43 -16 -134 -15 -180 1 -123 44 -204 187
-177 313 13 61 59 134 103 165 39 28 122 57 163 58 17 0 53 -7 81 -15z"/>
<path d="M29362 21251 c6 -64 39 -115 96 -149 l47 -27 1405 0 1405 0 47 27
c57 34 90 85 96 149 l5 49 -1553 0 -1553 0 5 -49z"/>
<path d="M12170 20572 c0 -4 9 -40 20 -80 16 -57 20 -103 20 -219 0 -157 12
-341 35 -563 15 -136 18 -168 74 -625 26 -215 46 -396 66 -610 2 -28 7 -123
11 -210 10 -238 -6 -365 -151 -1255 -69 -422 -117 -738 -150 -985 -35 -255
-72 -637 -80 -815 -3 -69 -8 -137 -10 -151 -4 -25 0 -28 53 -42 31 -8 69 -18
83 -21 26 -6 27 -9 31 -88 3 -56 1 -86 -7 -93 -45 -38 -65 -142 -65 -332 0
-208 33 -347 103 -429 15 -18 71 -57 125 -87 268 -152 355 -231 492 -442 129
-199 160 -237 231 -286 289 -196 729 -129 869 132 27 51 31 68 26 101 -13 78
-61 146 -190 268 -205 194 -430 530 -451 675 -17 117 -61 220 -119 283 -55 60
-191 112 -257 98 -28 -5 -29 -4 -28 32 1 20 4 64 8 96 l6 60 75 15 74 16 14
100 c65 496 150 946 337 1770 189 838 225 1007 280 1335 30 178 33 140 -35
580 -27 173 -92 594 -145 935 -52 341 -103 670 -113 730 l-18 110 -607 3
c-334 1 -607 -1 -607 -6z"/>
<path d="M14525 20508 c3 -40 30 -426 60 -858 30 -432 66 -949 80 -1150 13
-201 43 -635 65 -965 48 -698 58 -845 65 -940 3 -38 12 -171 20 -295 8 -124
18 -256 20 -295 3 -38 19 -265 35 -504 16 -239 31 -435 32 -436 2 -1 23 0 47
4 28 4 45 11 46 21 1 8 5 80 9 160 4 79 9 147 11 150 1 3 6 52 9 110 4 58 9
114 11 125 2 11 7 52 10 90 16 182 72 639 146 1175 27 201 52 383 55 405 3 22
11 83 19 135 26 179 65 515 79 690 53 617 46 1544 -17 2302 l-12 143 -398 3
-399 2 7 -72z"/>
<path d="M18486 20554 c-16 -63 31 -181 103 -257 l51 -54 -25 -108 c-42 -187
-58 -350 -52 -530 6 -181 26 -286 80 -421 29 -70 32 -84 18 -85 -21 -1 -174
-16 -232 -23 -120 -15 -296 -80 -440 -161 -305 -175 -529 -470 -613 -807 -20
-80 -44 -239 -46 -300 0 -5 -14 -8 -30 -8 -141 0 -215 -171 -123 -281 52 -62
-1 -59 1098 -59 l1005 0 0 -34 c0 -54 36 -157 78 -222 45 -70 125 -143 199
-181 51 -27 51 -28 55 -80 3 -51 2 -53 -22 -53 -14 0 -119 5 -235 10 -115 5
-260 11 -322 12 -106 3 -113 2 -137 -21 -58 -55 -55 -144 6 -196 29 -25 36
-26 107 -21 103 7 425 19 536 20 l89 1 40 -373 c32 -302 37 -375 27 -382 -8
-4 -41 -11 -75 -15 -94 -10 -288 -53 -416 -91 -600 -181 -1103 -551 -1390
-1024 -45 -73 -59 -89 -80 -90 -50 -1 -127 -46 -164 -97 -65 -88 -80 -142 -80
-283 0 -107 3 -133 23 -183 28 -72 74 -133 129 -172 36 -25 53 -30 100 -30
138 1 242 128 267 328 7 55 9 57 36 57 28 0 29 -2 29 -49 0 -67 33 -167 73
-224 155 -217 403 -108 448 197 20 135 -17 285 -93 371 l-41 46 29 31 c140
148 444 331 719 433 177 66 538 166 551 153 12 -12 14 -515 3 -703 -7 -121
-13 -240 -13 -265 l-1 -45 70 -12 c258 -48 566 -73 657 -54 84 18 85 22 59
154 -36 180 -47 372 -33 555 12 148 44 367 55 379 6 6 226 -39 303 -62 l51
-15 65 -192 c37 -106 110 -323 165 -483 54 -159 99 -292 101 -294 4 -8 230 30
304 50 88 25 167 63 269 131 l77 51 -14 33 c-20 48 -76 244 -72 254 2 5 41
-26 87 -69 l85 -77 -22 -31 c-12 -17 -22 -35 -22 -40 1 -4 38 -30 82 -58 99
-61 282 -237 326 -315 l31 -54 12 30 c6 16 16 58 21 94 14 90 15 92 40 88 20
-3 24 -11 30 -68 12 -120 48 -200 122 -268 157 -145 362 -11 398 260 25 187
-62 386 -189 434 -41 16 -116 16 -154 0 -12 -5 -32 18 -85 104 -179 289 -435
541 -754 742 -50 31 -95 58 -100 60 -6 2 -14 251 -20 643 -10 665 -21 921 -45
1089 -8 55 -15 103 -15 108 0 4 339 8 754 8 l753 0 34 23 c140 94 98 296 -66
315 l-43 4 -7 72 c-30 333 -151 600 -375 826 -227 229 -519 364 -850 391 -68
5 -126 12 -128 14 -2 2 1 36 7 75 40 254 15 608 -69 975 l-31 134 19 38 c26
50 72 197 72 229 l0 24 -1609 0 -1609 0 -6 -26z"/>
<path d="M25700 20573 c0 -5 -4 -60 -9 -123 -5 -63 -12 -158 -16 -210 -3 -52
-8 -120 -10 -150 -2 -30 -7 -120 -10 -200 -3 -80 -8 -181 -10 -225 -10 -179
-13 -746 -5 -985 14 -413 47 -809 100 -1190 171 -1244 243 -1839 270 -2255 6
-88 13 -188 16 -223 6 -67 7 -68 79 -74 28 -3 30 -6 33 -45 l3 -43 -53 0 c-79
-1 -171 -16 -215 -36 -68 -32 -162 -139 -221 -251 -45 -87 -65 -113 -145 -189
-155 -149 -364 -273 -582 -347 -127 -42 -149 -55 -206 -111 -57 -56 -89 -121
-89 -179 0 -96 97 -225 214 -284 62 -32 213 -70 308 -79 197 -18 426 53 608
188 176 129 348 223 470 254 53 13 91 15 210 9 133 -6 151 -5 209 15 119 40
169 87 211 199 66 173 76 546 19 699 -13 32 -22 82 -23 116 l-1 59 55 14 c30
7 66 24 79 38 l24 23 -12 134 c-21 221 -25 775 -10 1283 24 811 17 1118 -31
1373 -41 214 -19 330 140 737 43 110 84 219 91 243 7 23 13 41 15 40 1 -2 12
-91 23 -198 39 -360 81 -626 170 -1067 112 -550 165 -803 168 -799 3 2 21 225
63 751 130 1636 240 3009 245 3048 l6 47 -1091 0 c-599 0 -1090 -3 -1090 -7z"/>
<path d="M888 18180 c-147 -25 -268 -89 -378 -199 -142 -143 -210 -305 -210
-500 0 -122 19 -203 74 -316 145 -298 482 -451 811 -369 240 60 443 265 505
510 27 104 27 245 0 349 -34 134 -83 218 -185 321 -78 79 -103 98 -185 137
-143 69 -288 91 -432 67z m102 -220 c0 -231 13 -211 -118 -184 -76 15 -192 60
-192 74 0 18 86 138 133 184 49 49 153 126 169 126 5 0 8 -90 8 -200z m116
151 c38 -26 86 -67 107 -90 40 -44 117 -158 117 -172 0 -21 -152 -72 -254 -84
l-56 -7 0 201 c0 110 4 201 8 201 5 0 40 -22 78 -49z m-287 -30 c-41 -37 -94
-100 -119 -139 -25 -40 -49 -72 -54 -72 -14 0 -116 79 -116 90 0 14 114 96
175 128 51 26 149 61 174 61 8 1 -19 -30 -60 -68z m430 33 c65 -25 183 -97
215 -133 18 -20 18 -22 3 -39 -10 -10 -37 -33 -61 -50 l-44 -32 -32 58 c-18
31 -73 97 -122 145 -82 83 -86 88 -56 82 18 -4 62 -18 97 -31z m-681 -230 c31
-26 58 -50 60 -54 1 -4 -8 -41 -22 -81 -20 -60 -46 -196 -46 -240 0 -5 -52 -9
-116 -9 l-117 0 7 64 c7 72 44 189 77 244 33 55 83 121 92 122 4 0 33 -21 65
-46z m990 -11 c22 -32 49 -77 61 -101 28 -54 61 -182 61 -234 l0 -38 -114 0
-113 0 -11 83 c-6 45 -23 120 -37 166 l-27 85 28 20 c16 12 42 33 59 48 16 15
35 28 42 28 7 0 30 -26 51 -57z m-756 -111 c36 -12 94 -24 127 -28 l61 -7 0
-113 0 -114 -201 0 -200 0 6 58 c8 68 30 161 51 219 l16 42 37 -18 c20 -10 66
-28 103 -39z m587 -60 c10 -38 22 -100 26 -136 l7 -66 -201 0 -201 0 0 114 0
114 63 7 c65 8 194 45 237 69 23 13 26 13 37 -8 7 -13 21 -55 32 -94z m-820
-324 c7 -50 24 -127 38 -171 l27 -80 -25 -16 c-13 -9 -41 -32 -63 -51 l-39
-35 -32 38 c-73 84 -145 268 -145 369 l0 38 114 0 113 0 12 -92z m421 -28 l0
-120 -32 0 c-55 0 -165 -27 -229 -56 -36 -16 -63 -23 -69 -18 -15 15 -57 176
-65 247 l-7 67 201 0 201 0 0 -120z m426 53 c-8 -76 -28 -161 -51 -217 -12
-29 -20 -36 -33 -31 -78 34 -188 65 -244 71 l-68 7 0 118 0 119 201 0 202 0
-7 -67z m264 25 c0 -55 -23 -149 -51 -213 -27 -63 -107 -185 -121 -185 -6 0
-27 15 -47 33 -20 18 -47 40 -60 49 l-24 17 27 82 c15 46 32 123 38 171 l11
88 114 0 113 0 0 -42z m-690 -428 c0 -110 -3 -200 -6 -200 -15 0 -124 81 -169
125 -47 47 -117 143 -131 179 -4 12 7 21 42 37 66 28 180 58 227 58 l37 1 0
-200z m221 169 c74 -25 119 -46 119 -58 0 -19 -85 -137 -133 -185 -49 -49
-153 -126 -169 -126 -5 0 -8 91 -8 201 l0 202 64 -7 c35 -3 92 -16 127 -27z
m-520 -136 c24 -38 78 -103 121 -145 43 -43 77 -78 74 -78 -16 0 -150 47 -186
65 -54 28 -170 113 -170 126 0 6 108 99 116 99 1 0 21 -30 45 -67z m774 -13
l19 -21 -39 -34 c-80 -67 -194 -124 -300 -149 -26 -7 -20 1 45 62 41 38 97
103 124 145 l49 76 41 -29 c23 -15 50 -38 61 -50z"/>
<path d="M28606 17052 c-48 -285 -123 -722 -166 -972 -43 -250 -112 -655 -154
-900 -42 -245 -88 -510 -101 -590 -25 -142 -58 -333 -150 -875 -25 -148 -61
-359 -80 -467 -19 -109 -35 -203 -35 -208 0 -18 86 47 128 97 22 25 75 108
118 182 43 75 94 161 115 191 56 84 174 189 311 278 67 44 141 95 162 114 43
37 87 120 111 213 51 198 41 508 -20 575 -22 25 -12 130 13 130 9 0 51 10 94
21 l79 21 -6 102 c-32 531 -87 1005 -235 2008 -44 302 -80 557 -80 567 0 11
-3 22 -8 25 -4 2 -47 -228 -96 -512z"/>
<path d="M40344 16779 c-60 -51 -177 -179 -217 -237 -14 -21 -52 -48 -112 -79
-227 -117 -556 -330 -533 -344 26 -17 50 -8 143 55 52 36 111 70 132 75 122
33 344 32 507 -3 59 -12 68 -12 73 1 3 8 1 19 -4 24 -20 20 -191 42 -339 43
-112 1 -147 4 -135 12 41 27 247 135 341 179 108 49 138 71 121 88 -7 7 -32 0
-71 -17 -61 -26 -61 -26 -43 -3 59 74 115 133 166 174 31 25 57 52 57 58 0 30
-32 20 -86 -26z"/>
<path d="M39632 16474 c-82 -87 -153 -184 -211 -286 -31 -55 -31 -58 -12 -58
12 0 24 -1 28 -1 4 -1 20 20 34 46 40 74 142 213 209 287 59 65 74 98 46 98
-8 0 -50 -38 -94 -86z"/>
<path d="M14051 15875 c-2 -372 -4 -439 -22 -637 -7 -80 -7 -123 0 -136 11
-22 46 -38 106 -50 l40 -8 7 -74 c5 -56 3 -76 -8 -87 -53 -53 -71 -420 -29
-603 30 -131 78 -210 148 -247 32 -16 107 -44 107 -39 0 1 -29 191 -65 422
-36 230 -86 552 -110 714 -25 162 -59 376 -75 475 -16 99 -42 270 -59 380 -17
110 -32 211 -34 225 -2 14 -5 -137 -6 -335z"/>
<path d="M3910 15630 c-9 -6 445 -10 1175 -9 669 0 1181 4 1169 9 -29 12
-2326 11 -2344 0z"/>
<path d="M3834 15601 c-2 -2 -50 -6 -106 -8 -117 -5 -132 -13 -149 -76 -9 -32
-7 -48 6 -84 20 -51 51 -75 109 -83 l41 -5 3 -137 3 -138 1344 0 1345 0 0 134
0 134 37 7 c63 12 93 33 115 82 24 54 18 100 -16 140 -23 27 -27 28 -132 29
-331 4 -2596 8 -2600 5z"/>
<path d="M6500 15043 c0 -13 -3 -14 -8 -6 -6 10 -306 12 -1434 10 -1388 -2
-1426 -3 -1447 -21 -12 -11 -26 -36 -33 -57 -9 -32 -8 -46 6 -84 21 -53 58
-82 112 -87 l39 -3 3 -127 3 -128 1344 0 1344 0 3 128 3 127 39 3 c54 5 91 33
111 87 26 67 4 129 -55 160 -28 14 -30 14 -30 -2z"/>
<path d="M14910 14922 c0 -9 16 -244 35 -522 30 -439 37 -506 51 -515 10 -5
81 -52 158 -104 257 -171 351 -205 566 -206 151 0 241 17 347 67 112 52 213
178 213 266 0 50 -43 123 -104 180 -48 43 -71 55 -155 82 -124 40 -314 131
-417 201 -120 80 -248 210 -284 285 -17 34 -50 89 -75 122 -77 102 -151 145
-267 155 -60 6 -68 4 -68 -11z"/>
<path d="M3736 14522 c-3 -5 -29 -10 -58 -10 -42 -2 -57 -7 -74 -26 -34 -38
-39 -90 -14 -142 24 -48 42 -61 109 -78 41 -11 44 -14 60 -66 45 -144 165
-255 316 -295 44 -11 113 -15 272 -15 l212 0 41 -60 41 -60 444 0 444 0 42 60
42 60 211 0 c284 0 364 22 472 129 59 57 88 104 113 178 18 53 22 58 56 65 61
13 92 35 115 82 24 51 20 100 -11 140 -16 20 -32 26 -87 31 -99 10 -2740 17
-2746 7z"/>
<path d="M27269 13552 c-89 -92 -143 -177 -159 -249 -13 -55 19 -128 89 -205
33 -34 63 -59 67 -55 7 7 56 548 50 554 -1 2 -23 -19 -47 -45z"/>
<path d="M42480 12094 c-8 -2 -36 -6 -62 -9 -46 -6 -48 -8 -54 -45 -6 -34 -10
-39 -48 -50 -36 -10 -48 -9 -89 9 -61 27 -67 26 -128 -4 l-50 -26 7 -49 7 -50
-61 6 -61 7 -20 -34 c-18 -29 -21 -50 -21 -149 0 -99 3 -120 21 -149 20 -33
21 -34 80 -28 l59 5 0 -52 0 -52 57 -24 57 -23 60 21 c52 19 66 20 99 10 33
-10 37 -15 37 -44 0 -38 5 -40 101 -49 66 -7 66 -7 88 24 21 29 26 31 85 31
58 0 65 -2 89 -31 24 -30 28 -31 79 -25 106 14 107 14 110 54 3 33 6 37 41 45
30 7 50 5 93 -12 l55 -21 54 25 55 24 0 50 0 51 63 0 c63 0 63 0 81 36 14 30
16 54 11 138 -8 127 -10 137 -34 163 -18 19 -28 21 -76 16 l-55 -6 0 44 c0 55
-6 63 -54 83 -48 20 -70 20 -123 0 -29 -12 -56 -14 -88 -10 -40 7 -45 10 -45
34 0 43 -14 53 -81 62 -76 9 -78 8 -104 -30 -19 -28 -24 -30 -86 -30 -60 0
-68 3 -83 25 -18 28 -44 43 -66 39z m324 -360 c22 -10 39 -23 39 -29 0 -19
-99 -47 -184 -52 -71 -5 -100 -2 -157 16 -39 12 -74 25 -77 31 -6 10 23 28 80
47 62 20 249 12 299 -13z"/>
<path d="M29295 12003 c-60 -8 -112 -17 -114 -19 -3 -3 2 -24 11 -47 29 -77
29 -83 -2 -22 l-30 60 0 -57 c0 -40 4 -58 13 -59 6 0 -26 -11 -72 -25 l-84
-25 -91 36 c-50 19 -101 35 -113 35 -33 0 -173 -71 -173 -87 0 -8 -5 -11 -11
-8 -7 5 -10 -17 -9 -67 1 -40 2 -79 1 -86 -1 -11 -22 -12 -103 -7 l-103 7 -28
-55 c-16 -31 -26 -61 -21 -68 4 -8 3 -9 -4 -5 -9 5 -12 -44 -12 -191 l0 -199
37 -58 36 -59 108 7 108 7 3 -91 3 -91 89 -40 c48 -21 97 -39 107 -39 11 0 59
16 108 36 l89 37 74 -20 73 -20 5 -64 5 -64 40 -7 c22 -4 85 -10 141 -14 l101
-7 40 52 39 52 112 3 111 2 43 -53 c39 -47 47 -52 83 -52 37 -1 133 11 213 24
l32 6 0 63 0 64 71 22 70 21 92 -36 c51 -19 101 -35 113 -35 12 0 60 18 108
40 l86 40 0 91 0 91 107 -4 108 -3 28 53 29 52 -2 201 -1 200 -36 57 c-40 63
-51 73 -73 67 -8 -2 -52 -7 -97 -10 l-83 -7 0 87 c0 50 -4 84 -9 80 -5 -3 -11
2 -13 11 -3 16 -145 84 -176 84 -10 0 -58 -16 -107 -36 -60 -24 -97 -34 -114
-30 -81 19 -164 44 -148 45 14 1 17 10 17 50 0 30 -5 53 -15 61 -13 11 -238
44 -256 38 -4 -2 -25 -27 -47 -56 l-39 -53 -118 -1 -118 -1 -51 57 c-28 31
-55 56 -61 55 -5 -1 -59 -8 -120 -16z m600 -603 c90 -29 147 -58 143 -73 -5
-17 -104 -64 -173 -82 -188 -49 -464 -17 -586 68 -19 14 -19 15 13 34 107 62
213 83 393 79 109 -3 155 -9 210 -26z"/>
<path d="M35444 11522 c-33 -26 -47 -60 -40 -97 6 -33 6 -34 -46 -53 -29 -11
-70 -25 -91 -32 -21 -6 -36 -17 -34 -24 2 -6 144 -414 315 -906 171 -492 313
-902 317 -911 5 -14 16 -12 86 13 98 34 103 34 117 3 26 -57 116 -69 161 -21
24 26 23 55 -4 121 -7 16 -21 57 -31 90 -10 33 -28 83 -40 111 -13 29 -20 54
-18 57 3 3 -1 18 -9 34 -8 15 -26 62 -40 103 -14 41 -49 140 -77 220 -28 80
-53 152 -54 160 -2 8 -9 29 -15 45 -7 17 -29 80 -49 140 -19 61 -40 113 -46
117 -6 4 -8 8 -4 8 4 0 -10 48 -31 108 -21 59 -42 116 -45 127 -4 11 -18 49
-31 85 -13 36 -35 101 -50 145 -14 44 -29 87 -32 95 -4 8 -7 17 -8 20 0 3 -9
30 -20 60 -11 30 -20 57 -20 60 -4 14 -18 47 -26 63 -5 10 -7 22 -4 27 4 6 1
10 -6 10 -7 0 -9 3 -6 7 4 3 2 12 -4 20 -16 19 -90 16 -115 -5z"/>
<path d="M35071 11394 c-32 -23 -51 -71 -41 -105 8 -27 6 -28 -73 -57 -65 -23
-82 -34 -81 -48 1 -11 36 -116 77 -234 291 -830 540 -1548 544 -1567 3 -13 8
-23 12 -23 3 0 42 12 85 26 63 21 81 24 84 14 8 -24 49 -59 76 -66 59 -15 116
24 116 79 0 18 -4 37 -9 43 -5 5 -15 32 -24 59 -8 28 -29 91 -47 140 -18 50
-33 96 -33 103 0 6 -3 12 -7 12 -3 0 -6 8 -7 18 0 9 -11 42 -23 72 -12 30 -39
107 -60 170 -21 63 -48 139 -59 169 -11 30 -18 58 -15 62 3 5 1 9 -4 9 -5 0
-19 35 -32 78 -12 42 -25 82 -29 87 -6 11 -49 130 -55 155 -2 8 -13 39 -25 68
-11 28 -18 52 -15 52 4 0 2 6 -3 13 -6 6 -18 37 -28 67 -9 30 -23 69 -30 85
-7 17 -20 53 -28 80 -9 28 -36 109 -62 180 -26 72 -47 136 -48 143 0 6 -4 12
-9 12 -5 0 -7 4 -4 9 5 7 -8 43 -33 91 -12 22 -81 24 -110 4z"/>
<path d="M34714 11271 c-38 -23 -59 -76 -45 -113 9 -23 5 -28 -34 -56 -50 -35
-92 -96 -112 -161 -24 -80 -17 -137 37 -295 28 -81 50 -152 50 -159 0 -7 -13
-29 -29 -49 l-28 -38 106 -304 106 -304 50 -14 50 -13 50 -145 c28 -80 60
-161 72 -180 54 -87 148 -141 260 -148 40 -3 73 -8 73 -13 0 -4 12 -21 26 -38
22 -26 33 -31 70 -31 35 0 51 6 71 26 27 27 28 57 2 119 -6 17 -13 37 -15 46
-2 8 -10 29 -19 45 -8 16 -15 35 -15 42 0 6 -13 49 -29 95 -16 45 -45 126 -64
180 -19 53 -33 97 -30 97 3 0 1 6 -5 13 -12 14 -63 164 -65 190 -1 9 -4 17 -8
17 -4 0 -9 10 -12 23 -3 12 -33 101 -66 197 -34 96 -82 231 -105 300 -24 69
-49 137 -55 153 -6 15 -8 27 -5 27 4 0 1 6 -5 14 -6 7 -18 38 -27 67 -9 30
-22 64 -30 77 -8 13 -10 22 -4 22 6 0 5 9 -4 23 -8 12 -24 54 -36 92 -12 39
-29 86 -37 105 -8 19 -17 44 -19 55 -5 26 -40 55 -68 55 -11 0 -35 -9 -52 -19z"/>
<path d="M16748 10993 c-39 -4 -41 -8 -50 -68 -2 -15 -15 -22 -50 -29 -39 -8
-55 -5 -102 14 l-56 22 -58 -28 -57 -29 -3 -51 -3 -52 -62 5 c-61 5 -62 5 -80
-26 -10 -17 -15 -36 -11 -43 4 -7 3 -8 -4 -4 -9 5 -12 -26 -12 -119 0 -112 2
-130 21 -156 19 -27 22 -28 80 -22 l59 6 0 -54 0 -55 57 -28 56 -27 59 22 c47
17 67 20 101 13 40 -9 42 -11 47 -49 l5 -40 78 -9 78 -9 32 31 c30 29 39 32
94 32 56 0 63 -3 86 -30 28 -32 55 -37 151 -24 45 7 46 7 46 44 0 37 1 38 48
50 42 10 54 9 96 -9 61 -27 76 -26 136 4 l50 25 0 51 0 51 62 -3 c61 -4 62 -3
85 30 21 31 23 45 23 150 0 90 -4 124 -18 151 -16 34 -19 35 -79 38 l-63 3 0
50 0 49 -55 27 -56 28 -64 -23 c-56 -19 -70 -21 -108 -11 -38 11 -43 15 -39
38 6 43 -16 58 -94 65 l-71 7 -26 -34 c-26 -35 -26 -35 -94 -30 -60 4 -71 8
-94 34 -26 30 -40 32 -141 22z m397 -370 c27 -11 51 -25 53 -31 1 -5 -23 -20
-55 -33 -108 -42 -339 -26 -383 26 -14 17 5 28 82 50 75 21 236 14 303 -12z"/>
<path d="M25880 10898 c-42 -26 -61 -45 -83 -88 -26 -50 -29 -62 -24 -125 l5
-70 -188 -103 -188 -103 -47 35 c-79 61 -168 70 -253 27 -48 -25 -76 -55 -101
-111 -40 -87 -22 -180 49 -250 87 -88 202 -93 305 -14 l46 35 188 -103 187
-102 0 -81 c-1 -70 2 -86 27 -128 57 -96 197 -138 296 -87 94 48 146 157 122
258 -15 62 -69 128 -125 153 -85 38 -202 17 -261 -47 l-22 -24 -189 104 -189
104 -1 73 c0 41 -2 80 -5 88 -3 10 57 48 189 122 l192 108 24 -24 c65 -65 186
-86 265 -45 132 67 168 239 74 350 -48 55 -102 80 -178 80 -51 0 -70 -5 -115
-32z m173 -32 c48 -18 74 -41 98 -88 49 -96 -3 -207 -111 -239 -72 -22 -166
25 -196 98 -40 94 5 194 103 228 47 17 59 17 106 1z m-780 -440 c44 -18 95
-78 103 -121 21 -115 -66 -212 -182 -203 -99 8 -160 82 -152 184 10 115 125
185 231 140z m769 -426 c134 -38 172 -206 66 -295 -112 -94 -278 -13 -278 135
0 68 40 124 110 154 42 18 54 19 102 6z"/>
<path d="M11276 9854 c-60 -7 -112 -16 -117 -21 -4 -4 3 -34 16 -65 13 -32 19
-58 14 -58 -5 0 -9 6 -10 13 0 6 -9 30 -19 52 l-19 40 0 -52 c-1 -40 3 -52 16
-55 9 -2 -28 -14 -83 -27 l-99 -23 -93 37 c-108 44 -122 43 -236 -9 -74 -34
-78 -37 -60 -51 13 -11 14 -13 3 -9 -18 6 -29 -36 -29 -119 l0 -49 -92 8 c-92
7 -128 8 -132 2 -48 -74 -66 -110 -60 -119 4 -7 3 -9 -3 -6 -7 4 -13 -64 -18
-203 l-7 -210 34 -58 34 -57 112 3 112 2 0 -95 0 -96 96 -45 c52 -24 101 -44
108 -44 7 0 57 18 112 39 l100 39 77 -22 77 -21 0 -67 c0 -62 2 -68 23 -73 47
-10 181 -25 227 -25 47 0 50 2 92 54 l43 55 118 0 117 1 36 -50 c20 -28 44
-55 53 -60 17 -9 184 3 261 19 l35 7 3 67 3 66 37 11 c20 5 41 10 46 10 6 0
19 9 30 19 31 29 326 161 358 161 16 0 45 -7 65 -15 46 -19 43 -21 43 20 0 21
5 35 13 35 6 0 52 -5 101 -10 56 -6 96 -6 107 0 9 6 31 34 48 64 l31 53 0 210
0 209 -31 58 c-17 32 -37 60 -44 62 -7 3 -59 1 -116 -3 l-104 -8 2 98 2 98
-86 39 c-47 22 -97 40 -111 40 -14 0 -68 -16 -119 -36 l-93 -36 -82 23 -83 23
2 50 3 51 -20 -40 c-14 -29 -16 -42 -7 -47 8 -5 6 -8 -5 -8 -23 0 -23 -1 6 70
l25 60 -22 5 c-42 8 -190 25 -226 25 -32 0 -41 -7 -78 -55 l-43 -55 -127 0
-128 1 -43 59 c-32 43 -50 60 -65 59 -12 -1 -71 -7 -131 -15z m539 -623 c100
-21 185 -53 210 -81 16 -18 13 -20 -57 -54 -185 -88 -491 -88 -675 0 -40 19
-73 38 -73 43 0 25 163 86 280 104 71 12 232 5 315 -12z"/>
<path d="M13500 8969 c-80 -10 -157 -18 -171 -18 -14 -1 -33 -7 -42 -13 -15
-12 -13 -22 22 -113 21 -55 36 -103 34 -107 -2 -5 -14 -7 -26 -7 -18 1 -19 2
-4 6 10 3 17 8 15 12 -2 3 -16 41 -32 84 -16 43 -30 76 -31 75 -1 -2 -5 -42
-8 -90 -5 -85 -4 -88 17 -89 11 0 -30 -14 -92 -29 -62 -16 -136 -36 -163 -45
l-50 -17 -174 71 c-95 39 -185 71 -199 71 -24 0 -319 -129 -338 -148 -12 -12
16 -32 165 -112 64 -36 117 -67 117 -70 0 -4 -28 -25 -62 -48 -35 -23 -81 -59
-103 -81 -32 -33 -47 -40 -75 -39 -33 1 -34 1 -5 5 16 3 48 22 71 43 23 21 67
55 98 76 31 20 56 40 56 43 0 5 -254 149 -282 159 -5 3 -8 -60 -6 -157 2 -103
-1 -161 -7 -161 -5 0 -93 8 -194 17 l-184 17 -18 -23 c-10 -12 -43 -64 -73
-114 l-54 -92 -6 -260 c-4 -143 -7 -309 -8 -370 l-2 -110 53 -93 c32 -56 63
-98 77 -104 17 -8 59 -8 151 1 71 6 149 11 176 11 54 0 49 24 47 -196 -1 -96
3 -133 12 -141 29 -23 326 -153 348 -153 14 0 105 31 203 69 l177 68 93 -28
c50 -15 111 -33 135 -39 l43 -11 -6 -108 c-5 -88 -3 -112 9 -123 18 -18 316
-61 431 -62 l79 -1 81 97 80 97 210 0 210 0 69 -95 c38 -54 79 -99 93 -105 17
-6 93 -1 246 16 122 14 230 28 239 31 24 7 27 26 24 141 l-2 102 45 10 c25 6
90 23 144 38 l97 27 181 -73 c134 -54 187 -71 207 -67 60 15 340 149 345 166
2 9 5 86 6 171 1 84 3 154 4 154 1 1 61 -4 132 -11 183 -19 251 -20 269 -5 9
8 40 55 70 105 l54 91 7 365 7 365 -59 105 c-37 65 -69 109 -84 116 -18 9 -61
8 -169 -2 -80 -7 -157 -13 -172 -13 l-28 -1 0 161 0 160 -142 -75 c-79 -41
-143 -79 -143 -84 0 -5 23 -26 50 -47 28 -20 68 -55 90 -76 30 -28 50 -39 80
-42 l40 -4 -42 -1 c-37 -2 -48 3 -85 38 -24 23 -71 62 -105 87 l-63 47 145 76
c80 42 151 82 157 88 8 8 -28 30 -147 87 -86 41 -171 75 -186 75 -16 0 -108
-30 -205 -66 l-175 -67 -87 26 c-48 15 -127 37 -177 48 -49 12 -94 26 -99 30
-5 4 10 49 33 102 22 52 41 99 41 105 0 7 -10 14 -22 17 -28 6 -418 55 -441
55 -9 0 -54 -46 -99 -102 l-82 -103 -223 1 -223 1 -75 101 -75 102 -57 -1
c-32 -1 -123 -10 -203 -20z m873 -704 c60 -9 147 -27 195 -41 83 -24 247 -97
258 -115 11 -18 -19 -8 -89 30 -79 43 -194 81 -332 108 -158 31 -532 23 -670
-14 -13 -3 -17 -2 -10 5 11 10 186 40 270 45 96 7 271 -2 378 -18z m32 -379
c133 -24 273 -71 360 -122 73 -44 76 -46 60 -64 -49 -54 -253 -134 -426 -167
-129 -24 -445 -24 -578 1 -166 30 -325 90 -409 153 -31 23 -32 26 -18 42 21
23 145 84 222 110 71 23 191 49 284 61 99 13 402 4 505 -14z"/>
</g>
</svg>
