<?xml version="1.0"?>
<svg xmlns="http://www.w3.org/2000/svg" id="Capa_1" enable-background="new 0 0 512 512" height="512px" viewBox="0 0 512 512" width="512px" class=""><g><g><g><circle cx="256" cy="256" fill="#b6c4cf" r="248.5" data-original="#B6C4CF" class="" style="fill:#FFB229" data-old_color="#b6c4cf"/><path d="m362.906 31.618c27.188 39.846 43.094 88.004 43.094 139.882 0 137.243-111.257 248.5-248.5 248.5-38.274 0-74.523-8.661-106.906-24.118 44.738 65.568 120.041 108.618 205.406 108.618 137.243 0 248.5-111.257 248.5-248.5 0-98.968-57.86-184.416-141.594-224.382z" fill="#8d9ca8" data-original="#8D9CA8" class="" style="fill:#FFB229" data-old_color="#8d9ca8"/><circle cx="256" cy="256" fill="#f5f8f9" r="216.385" data-original="#F5F8F9" class="" style="fill:#0E2A47" data-old_color="#f5f8f9"/><path d="m391.304 87.146c9.505 26.338 14.696 54.739 14.696 84.354 0 137.243-111.257 248.5-248.5 248.5-16.367 0-32.359-1.6-47.842-4.62 38.524 35.391 89.906 57.004 146.342 57.004 119.506 0 216.385-96.879 216.385-216.385 0-68.299-31.654-129.196-81.081-168.853z" fill="#e8edf2" data-original="#E8EDF2" class="active-path" style="fill:#374957" data-old_color="#e8edf2"/><g><g><path d="m256 240.235c-29.287 0-56.5-26.214-101.163-73.801-5.843-6.226-5.444-15.928.891-21.67 6.336-5.742 16.208-5.35 22.051.876 36.128 38.494 62.606 63.925 78.221 63.925s42.093-25.431 78.221-63.925c5.843-6.225 15.714-6.618 22.051-.876 6.335 5.742 6.734 15.444.891 21.67-44.663 47.587-71.876 73.801-101.163 73.801z" fill="#b6c4cf" data-original="#B6C4CF" class="" style="fill:#FFB229" data-old_color="#b6c4cf"/></g><g><path d="m343.085 371.3c-4.206 0-5.788-1.66-8.864-4.938-36.128-38.494-62.606-63.925-78.221-63.925s-42.093 25.431-78.221 63.925c-5.843 6.225-15.714 6.618-22.051.876-6.335-5.742-6.734-15.444-.891-21.67 44.663-47.589 71.876-73.802 101.163-73.802s56.5 26.214 101.163 73.801c5.843 6.226 5.444 15.928-.891 21.67-3 2.719-9.405 4.063-13.187 4.063z" fill="#b6c4cf" data-original="#B6C4CF" class="" style="fill:#FFB229" data-old_color="#b6c4cf"/></g></g></g><g><g><g><g><path d="m256 247.734c-32.779 0-62.152-28.776-106.631-76.169-4.211-4.487-6.394-10.326-6.147-16.441.248-6.123 2.9-11.776 7.469-15.918 9.338-8.464 23.943-7.879 32.557 1.3 20.191 21.513 57.774 61.558 72.752 61.558s52.562-40.044 72.752-61.558c8.615-9.179 23.219-9.762 32.556-1.301 4.57 4.143 7.223 9.796 7.47 15.919.247 6.115-1.936 11.954-6.147 16.441-44.479 47.393-73.852 76.169-106.631 76.169zm-89.691-99.541c-1.984 0-3.973.704-5.544 2.127-1.564 1.417-2.471 3.339-2.555 5.41-.083 2.063.662 4.042 2.097 5.571 41.714 44.446 68.971 71.434 95.694 71.434s53.979-26.987 95.694-71.434c1.435-1.529 2.18-3.508 2.097-5.571-.084-2.071-.991-3.992-2.556-5.41-3.314-3.003-8.493-2.801-11.545.451-41.265 43.968-65.539 66.293-83.69 66.293s-42.425-22.325-83.69-66.292c-1.606-1.711-3.801-2.579-6.002-2.579z" data-original="#000000" class="" style="fill:#000000"/></g></g><g><g><path d="m343.082 378.799c-7.474 0-10.958-3.714-14.329-7.306-20.191-21.513-57.775-61.558-72.752-61.558s-52.562 40.044-72.752 61.558c-8.614 9.179-23.218 9.763-32.556 1.301-4.57-4.144-7.223-9.797-7.47-15.92-.247-6.115 1.936-11.954 6.147-16.44 44.48-47.393 73.853-76.169 106.631-76.169s62.151 28.776 106.631 76.169c4.211 4.487 6.394 10.326 6.147 16.44-.248 6.123-2.9 11.776-7.469 15.919-5.243 4.75-14.211 6.005-18.223 6.005-.002.001-.004.001-.005.001zm-87.082-99.533c-26.722 0-53.979 26.987-95.694 71.434-1.435 1.529-2.18 3.507-2.097 5.57.084 2.071.992 3.993 2.556 5.411 3.313 3.003 8.493 2.8 11.544-.452 41.266-43.968 65.54-66.293 83.69-66.293s39.453 25.315 83.69 66.292c7.31 6.771 17.827-3.74 12.004-10.529-41.714-44.446-68.971-71.433-95.693-71.433z" data-original="#000000" class="" style="fill:#000000"/></g></g></g><g><path d="m256 512c-68.38 0-132.667-26.629-181.02-74.98-48.351-48.353-74.98-112.64-74.98-181.02 0-4.142 3.358-7.5 7.5-7.5s7.5 3.358 7.5 7.5c0 64.374 25.068 124.894 70.587 170.413s106.039 70.587 170.413 70.587 124.894-25.068 170.413-70.587 70.587-106.039 70.587-170.413-25.068-124.894-70.587-170.413-106.039-70.587-170.413-70.587c-121.403 0-224.215 90.706-239.15 210.99-.511 4.11-4.256 7.028-8.367 6.519-4.11-.51-7.029-4.256-6.519-8.367 15.866-127.782 125.078-224.142 254.036-224.142 68.38 0 132.667 26.629 181.02 74.98 48.351 48.353 74.98 112.64 74.98 181.02s-26.629 132.667-74.98 181.02c-48.353 48.351-112.64 74.98-181.02 74.98z" data-original="#000000" class="" style="fill:#000000"/></g><g><path d="m256 479.885c-59.802 0-116.024-23.288-158.311-65.574-42.286-42.287-65.574-98.509-65.574-158.311s23.288-116.024 65.574-158.311c42.287-42.286 98.509-65.574 158.311-65.574s116.024 23.288 158.311 65.574c42.286 42.287 65.574 98.509 65.574 158.311 0 26.005-4.421 51.49-13.141 75.746-1.401 3.897-5.697 5.92-9.595 4.521-3.898-1.401-5.922-5.697-4.521-9.595 8.132-22.624 12.256-46.401 12.256-70.672 0-115.179-93.706-208.885-208.885-208.885s-208.884 93.706-208.884 208.885 93.706 208.885 208.885 208.885c78.249 0 149.307-43.162 185.442-112.642 1.911-3.675 6.439-5.105 10.114-3.193 3.675 1.911 5.104 6.439 3.193 10.114-38.727 74.463-114.883 120.721-198.749 120.721z" data-original="#000000" class="" style="fill:#000000"/></g></g></g></g> </svg>
