<svg width="223" height="208" viewBox="0 0 223 208" fill="none" xmlns="http://www.w3.org/2000/svg">
<path d="M213.12 73.4508C213.033 73.4392 212.946 73.4341 212.859 73.4356C212.038 73.4594 211.682 74.1957 210.987 74.4173C210.679 74.515 209.779 74.1436 209.745 74.6823C209.734 74.8799 209.64 75.551 209.588 76.22C209.347 76.7282 209.128 77.2473 208.839 77.7295C208.109 78.9501 205.127 80.6681 206.176 82.3188C206.361 82.6479 206.602 82.9419 206.888 83.1876C207.142 83.3644 207.424 83.4966 207.723 83.5785C207.951 83.6524 208.298 83.8261 208.507 83.7197C208.715 83.6133 208.98 83.0399 209.126 82.8336L210.366 81.0569C210.772 80.4748 211.304 79.8276 212.012 79.8667C212.165 79.8905 212.32 79.9035 212.475 79.9058C212.648 79.8803 212.814 79.8173 212.961 79.7212C213.529 79.4105 214.058 79.0344 214.538 78.6004C215.379 77.8164 215.096 76.0375 215.009 75.0298C215.004 74.7768 214.943 74.5282 214.829 74.3022C214.612 73.9503 214.206 73.7874 213.819 73.6506C213.593 73.5607 213.359 73.4937 213.12 73.4508Z" fill="#E5D1BD"/>
<path d="M197.975 95.0725C198.865 94.8944 199.769 94.7098 200.581 94.3014C201.219 93.9554 201.812 93.5339 202.349 93.046C205.776 90.1283 208.728 86.6946 211.098 82.8683C209.717 81.2606 208.031 79.9416 206.139 78.9871C203.53 81.5989 200.718 83.9999 197.729 86.1675C197.132 86.635 196.475 87.02 195.775 87.3121C194.756 87.6922 193.64 87.69 192.554 87.6814L179.902 87.5923C177.359 87.5749 174.722 87.5749 172.402 88.6218C165.971 91.5213 168.682 100.025 175.256 99.7226C182.645 99.3838 190.71 96.5385 197.975 95.0725Z" fill="#6E8E7C"/>
<path d="M176.874 92.2512C202.349 92.2512 223 71.6 223 46.1256C223 20.6511 202.349 0 176.874 0C151.4 0 130.749 20.6511 130.749 46.1256C130.749 71.6 151.4 92.2512 176.874 92.2512Z" fill="#F6D738"/>
<path d="M176.874 85.2728C198.495 85.2728 216.022 67.746 216.022 46.1256C216.022 24.5053 198.495 6.97852 176.874 6.97852C155.254 6.97852 137.727 24.5053 137.727 46.1256C137.727 67.746 155.254 85.2728 176.874 85.2728Z" fill="#F3CC30"/>
<path d="M198.97 13.7614C203.369 21.4517 205.03 30.4069 203.681 39.1635C202.332 47.92 198.052 55.96 191.542 61.9694C185.031 67.9787 176.675 71.602 167.839 72.2471C159.002 72.8923 150.208 70.521 142.894 65.521C145.817 70.6299 149.854 75.014 154.705 78.3472C159.556 81.6805 165.097 83.8769 170.914 84.7732C176.731 85.6695 182.676 85.2427 188.305 83.5243C193.935 81.8059 199.104 78.8403 203.429 74.8481C207.754 70.8559 211.124 65.9399 213.286 60.4657C215.449 54.9916 216.35 49.1002 215.921 43.23C215.493 37.3597 213.746 31.6616 210.811 26.5596C207.876 21.4576 203.829 17.083 198.97 13.7614Z" fill="#EDBD31"/>
<path d="M144.449 48.1194C144.803 40.9108 147.404 33.9937 151.889 28.3391C156.374 22.6845 162.517 18.5762 169.456 16.5908C176.395 14.6055 183.781 14.8427 190.579 17.2692C197.376 19.6958 203.243 24.1898 207.355 30.1205C205.201 25.9068 202.204 22.1805 198.55 19.1726C194.896 16.1647 190.663 13.9395 186.114 12.6347C181.565 11.3299 176.796 10.9735 172.103 11.5875C167.411 12.2014 162.894 13.7728 158.834 16.204C154.773 18.6353 151.255 21.8746 148.498 25.7213C145.741 29.5679 143.804 33.9399 142.806 38.5662C141.808 43.1924 141.771 47.9743 142.697 52.6155C143.623 57.2567 145.492 61.6582 148.189 65.5471C145.433 60.1673 144.143 54.1564 144.449 48.1194Z" fill="#F7DB5E"/>
<path d="M163.113 62.5693V28.2352H167.952L178.957 45.6108C181.254 49.1912 183.314 52.9183 185.123 56.7681L185.225 56.7181C184.817 52.131 184.715 47.9543 184.715 42.6005V28.2352H188.894V62.5693H184.398L173.495 45.146C171.106 41.3234 168.808 37.4008 167.075 33.6825L166.922 33.7324C167.177 38.0633 167.279 42.19 167.279 47.8957V62.5693H163.113Z" fill="#D49A34"/>
<path d="M159.232 51.5141V48.9664H192.756V51.5141H159.232Z" fill="#D49A34"/>
<path d="M192.827 41.7317H159.232V44.0231H192.827V41.7317Z" fill="#D49A34"/>
<path opacity="0.14" d="M153.804 206.893C167.581 206.717 182.124 206.256 193.588 202.475C195.542 201.824 197.612 200.788 196.948 199.669C184.785 197.152 171.049 197.658 157.896 198.123C128.899 199.145 99.8594 199.757 70.7771 199.96C56.5393 200.06 42.3015 200.06 28.0637 199.96C20.4271 199.908 8.98965 199.274 2.79309 201.96C11.2267 204.234 26.5737 203.915 36.2845 204.445C49.3813 205.16 62.5064 205.728 75.6596 206.148C101.672 206.979 127.72 207.227 153.804 206.893Z" fill="black"/>
<path d="M113.471 170.324C113.564 171.151 113.866 171.914 114.06 172.713C116.898 172.444 119.594 172.051 122.346 171.162C121.09 170.076 121.618 168.719 119.196 168.921C118.412 168.977 114.739 170.335 113.471 170.324Z" fill="#E5D1BD"/>
<path d="M115.652 172.733C115.817 173.228 115.634 173.56 115.376 173.944C115.224 174.162 114.989 174.34 114.896 174.596C114.818 174.848 114.794 175.114 114.824 175.376C114.894 176.883 115.461 180.295 112.707 178.84C110.207 177.515 110.456 172.976 110.695 170.354C110.688 170.18 110.732 170.008 110.821 169.859C110.948 169.713 111.108 169.6 111.288 169.529C112.307 169.082 113.573 168.491 114.212 169.731C114.483 170.259 114.19 170.817 114.481 171.386C114.72 171.844 115.487 172.235 115.652 172.733Z" fill="#4D4D4D"/>
<path d="M149.467 137.988C146.05 142.432 150.073 151.649 146.341 154.634C138.535 160.876 128.412 163.982 119.674 167.209C119.049 167.439 117.305 167.72 116.462 167.976C116.596 170.167 117.196 172.046 117.806 174.229C128.245 173.037 145.455 171.54 151.708 168.936C160.192 165.402 168.35 154.091 175.536 147.216C176.727 146.076 178.466 144.452 178.399 142.64C178.349 141.254 177.667 140.203 176.662 139.096C173.951 136.131 170.665 131.455 166.249 131.453C161.412 131.453 152.09 134.574 149.467 137.988Z" fill="#8C9193"/>
<path d="M184.67 194.287C185.512 194.458 186.359 194.376 187.202 194.467C187.878 191.533 188.41 188.657 188.447 185.603C186.967 186.572 185.84 185.662 185.28 188.158C185.095 188.959 185.139 193.023 184.67 194.287Z" fill="#E5D1BD"/>
<path d="M187.734 192.901C188.262 192.901 188.525 193.207 188.82 193.568C188.99 193.785 189.072 194.074 189.27 194.259C189.476 194.424 189.723 194.531 189.984 194.569C191.461 194.936 194.913 195.46 192.662 197.651C190.616 199.643 186.364 198.012 183.916 196.982C183.749 196.933 183.599 196.839 183.482 196.711C183.379 196.544 183.319 196.354 183.306 196.159C183.175 195.06 182.997 193.605 184.379 193.37C184.969 193.273 185.465 193.729 186.094 193.616C186.594 193.52 187.209 192.901 187.734 192.901Z" fill="#4D4D4D"/>
<path d="M162.679 150.129C166.723 154.169 178.301 157.134 180.187 161.784C180.943 163.649 183.429 177.443 183.807 187.154C183.833 187.849 183.516 189.659 183.51 190.575C185.667 191.194 187.606 191.064 189.932 191.227C191.631 180.035 193.392 160.437 193.392 160.437C191.096 150.653 179.989 139.439 173.825 130.61C172.804 129.15 171.61 127.15 169.779 126.905C168.374 126.716 167.264 127.213 166 128.034C162.62 130.232 152.399 133.742 151.65 138.123C150.831 142.914 159.575 147.025 162.679 150.129Z" fill="#8C9193"/>
<path d="M163.886 88.6739C163.156 89.1973 162.446 89.736 161.751 90.2572C158.928 92.3705 156.048 94.5555 153.913 97.3964C151.928 100.038 151.406 103.341 150.438 106.451C147.723 115.139 147.253 124.285 145.996 133.233C145.75 134.971 145.468 136.741 144.773 138.361C144.078 139.982 142.923 141.467 141.328 142.217C139.784 142.944 137.958 142.936 136.463 143.757C136.68 143.633 139.148 145.349 139.504 145.533C140.516 146.068 141.615 146.421 142.749 146.576C145.355 146.975 148.066 147.295 150.646 146.537C153.502 145.7 155.826 143.654 158.446 142.241C161.125 140.796 164.111 140.014 167.155 139.958C172.585 139.862 178.232 142.065 183.323 140.16C182.237 140.562 180.717 132.124 180.584 131.355C180.026 128.01 180.454 124.515 180.754 121.123C181.307 114.852 181.596 108.549 182.111 102.292C182.482 97.8091 183.414 94.3014 180.356 90.5135C178.692 88.4524 175.641 84.8665 172.88 84.9208C169.525 84.9794 166.588 86.7343 163.886 88.6739Z" fill="#6E8E7C"/>
<path d="M180.675 83.5503C179.655 84.5125 178.371 85.1402 177.2 85.9395C176.03 86.7388 175.434 87.5576 174.752 88.7022C174.262 89.5297 173.666 90.0901 172.546 89.8121C170.428 89.2864 171.677 87.8573 171.703 86.4759C171.74 84.8883 171.071 83.3527 170.793 81.8106C169.989 77.356 173.469 70.6012 178.727 70.9878C184.489 71.4027 183.77 80.6247 180.675 83.5503Z" fill="#E5D1BD"/>
<path d="M173.827 75.8747C173.252 76.2461 172.934 77.0519 173.254 77.6578C173.425 77.9836 173.74 78.2073 173.938 78.5266C174.513 79.4367 173.842 80.6464 173 81.3176C172.157 81.9887 171.101 82.4513 170.532 83.3657C167.665 81.0417 165.472 77.6774 165.272 73.9916C165.126 71.3332 166.186 68.5618 168.165 66.7634C170.489 64.6479 172.839 64.7652 175.864 64.5067C177.109 64.4003 178.39 64.2895 179.585 64.6609C181.422 65.2191 183.06 65.8251 185.063 65.8229C186.251 65.8229 187.476 65.5341 188.407 64.7999C189.17 64.2005 189.687 63.3513 190.319 62.6171C190.951 61.883 191.802 61.2249 192.773 61.2401C192.842 61.8157 192.901 62.4456 192.582 62.9321C192.419 63.1818 192.167 63.3665 192.002 63.6206C191.374 64.5893 192.31 65.9489 191.856 67.0132C191.533 67.7712 190.629 68.0883 190.091 68.7138C189.619 69.2633 189.463 70.017 189.139 70.6533C188.069 72.7905 184.924 75.2144 182.999 76.5176C183.579 76.1288 181.574 73.8939 181.116 73.7961C180.03 73.5637 178.33 74.7887 177.224 75.0537C176.16 75.2926 174.77 75.2665 173.827 75.8747Z" fill="#534741"/>
<path d="M200.837 122.456C200.813 122.372 200.783 122.29 200.746 122.211C200.392 121.47 199.573 121.442 199.091 120.908C198.874 120.662 198.852 119.691 198.348 119.878C198.162 119.948 197.514 120.132 196.878 120.356C196.315 120.339 195.751 120.356 195.193 120.28C193.781 120.104 191.005 118.071 189.921 119.696C189.692 119.998 189.518 120.338 189.409 120.701C189.349 121.005 189.342 121.316 189.387 121.622C189.413 121.861 189.387 122.248 189.576 122.396C189.765 122.543 190.388 122.556 190.636 122.613L192.764 123.03C193.459 123.167 194.265 123.392 194.517 124.057C194.557 124.205 194.607 124.35 194.667 124.491C194.762 124.639 194.886 124.765 195.032 124.863C195.546 125.255 196.105 125.587 196.696 125.851C197.751 126.303 199.265 125.326 200.151 124.839C200.38 124.732 200.583 124.576 200.744 124.381C200.983 124.046 200.961 123.601 200.935 123.193C200.928 122.945 200.895 122.698 200.837 122.456Z" fill="#E5D1BD"/>
<path d="M174.939 117.335C175.463 118.078 175.995 118.829 176.696 119.407C177.271 119.85 177.897 120.222 178.56 120.517C182.613 122.472 186.946 123.785 191.402 124.407C192.316 122.494 192.843 120.42 192.953 118.304C189.509 116.973 186.176 115.37 182.986 113.51C182.319 113.156 181.702 112.713 181.153 112.194C180.393 111.416 179.945 110.393 179.513 109.396L174.485 97.7874C173.475 95.4525 172.409 93.0417 170.515 91.3432C165.263 86.6323 158.569 92.5443 161.512 98.4368C164.805 105.053 170.665 111.282 174.939 117.335Z" fill="#6E8E7C"/>
<path d="M15.3469 201.016H8.33374V187.658H22.3602V193.683L15.3469 201.016Z" fill="#3A494C"/>
<path d="M90.2899 200.709H97.3053V187.352H83.2767V193.377L90.2899 200.709Z" fill="#3A494C"/>
<path d="M100.157 77.9728H4.48072C2.00609 77.9728 0 79.9789 0 82.4535V187.96C0 190.435 2.00609 192.441 4.48072 192.441H100.157C102.632 192.441 104.638 190.435 104.638 187.96V82.4535C104.638 79.9789 102.632 77.9728 100.157 77.9728Z" fill="#506266"/>
<path d="M95.9695 87.7205H8.66818C8.20996 87.7205 7.8385 88.0919 7.8385 88.5501V181.863C7.8385 182.322 8.20996 182.693 8.66818 182.693H95.9695C96.4277 182.693 96.7992 182.322 96.7992 181.863V88.5501C96.7992 88.0919 96.4277 87.7205 95.9695 87.7205Z" fill="#343738"/>
<path d="M84.1651 196.654L8.87253 183.151C8.54022 183.091 8.27307 182.643 8.27307 182.15V89.3234C8.27307 88.8304 8.54022 88.3829 8.87253 88.3243L84.1651 74.8192C84.7146 74.7214 85.1599 75.1558 85.1599 75.7922V195.692C85.1599 196.318 84.706 196.754 84.1651 196.654Z" fill="#63767C"/>
<path d="M63.9811 135.746C63.9811 150.516 54.5288 161.69 43.6148 160.776C33.4479 159.916 25.6897 148.732 25.6897 135.746C25.6897 122.76 33.4479 111.558 43.6148 110.706C54.5288 109.792 63.9811 120.977 63.9811 135.746Z" fill="#506266"/>
<path d="M59.0508 135.746C59.0508 146.939 51.9464 155.552 43.6148 155.016C35.7198 154.508 29.621 145.894 29.621 135.746C29.621 125.599 35.7198 116.985 43.6148 116.475C51.9464 115.93 59.0508 124.546 59.0508 135.746Z" fill="#A4BBBC"/>
<path d="M48.834 135.746C48.834 139.53 46.4753 142.545 43.6214 142.479C40.813 142.416 38.5759 139.4 38.5759 135.746C38.5759 132.093 40.813 129.074 43.6214 129.013C46.4796 128.937 48.834 131.952 48.834 135.746Z" fill="#4D4D4D"/>
<path opacity="0.11" d="M47.7438 131.472C48.2265 132.554 48.4723 133.726 48.4649 134.91C48.4649 138.689 46.1105 141.708 43.2523 141.643C41.645 141.611 40.2267 140.607 39.3102 139.074C40.179 141.059 41.7992 142.423 43.678 142.464C46.5406 142.529 48.8906 139.515 48.8906 135.731C48.911 134.233 48.5139 132.758 47.7438 131.472Z" fill="white"/>
<path d="M44.0341 154.655V150.377C44.0341 149.786 43.3347 149.753 43.3347 150.342V154.612C43.3347 155.201 44.0341 155.246 44.0341 154.655Z" fill="#4D4D4D"/>
<path d="M44.0341 121.099V116.818C44.0341 116.227 43.3347 116.273 43.3347 116.861V121.132C43.3347 121.72 44.0341 121.69 44.0341 121.099Z" fill="#4D4D4D"/>
<path d="M29.8859 136.355L32.8788 136.339C33.298 136.339 33.2958 135.453 32.8788 135.458L29.8837 135.479C29.4754 135.479 29.4775 136.348 29.8837 136.348L29.8859 136.355Z" fill="#4D4D4D"/>
<path d="M55.1827 136.231L58.736 136.213C59.2312 136.213 59.229 135.247 58.736 135.251L55.1848 135.279C54.7005 135.279 54.7027 136.233 55.1848 136.231H55.1827Z" fill="#4D4D4D"/>
<path d="M34.2255 149.358C34.9292 148.392 35.638 147.421 36.3518 146.445C36.6472 146.039 36.1672 145.405 35.8719 145.811L33.752 148.724C33.4632 149.123 33.9345 149.758 34.2255 149.358Z" fill="#4D4D4D"/>
<path d="M51.7792 125.302C52.5741 124.216 53.3705 123.122 54.1683 122.022C54.5007 121.566 53.962 120.936 53.6297 121.392L51.2579 124.67C50.9321 125.117 51.4599 125.756 51.7879 125.299L51.7792 125.302Z" fill="#4D4D4D"/>
<path d="M34.2537 122.257L36.2714 125.321C36.5494 125.756 37.0555 125.147 36.7753 124.72L34.7511 121.653C34.4752 121.234 33.9779 121.837 34.2537 122.257Z" fill="#4D4D4D"/>
<path d="M50.7909 147.475L53.0367 150.9C53.3495 151.376 53.9055 150.787 53.6014 150.309L51.347 146.884C51.0385 146.415 50.4782 147.006 50.7909 147.475Z" fill="#4D4D4D"/>
<path d="M73.959 156.788H73.9221C73.2031 156.74 72.6189 156.011 72.6189 155.155V117.181C72.6189 116.325 73.1988 115.595 73.9221 115.549H73.959C74.6822 115.506 75.2621 116.171 75.2621 117.033V155.309C75.2708 156.163 74.6822 156.834 73.959 156.788Z" fill="#798E91"/>
<path d="M84.1649 74.8191H86.1197C86.2349 74.8191 86.3454 74.8649 86.4268 74.9463C86.5083 75.0278 86.5541 75.1383 86.5541 75.2535V196.231C86.5541 196.346 86.5083 196.456 86.4268 196.538C86.3454 196.619 86.2349 196.665 86.1197 196.665H84.1649V74.8191Z" fill="#798E91"/>
<path d="M11.6807 112.819V106.456C11.6807 105.667 11.3674 104.911 10.8098 104.353C10.2522 103.795 9.49587 103.482 8.70728 103.482C7.91869 103.482 7.16239 103.795 6.60477 104.353C6.04715 104.911 5.73389 105.667 5.73389 106.456V112.819H11.6807Z" fill="#798E91"/>
<path d="M5.73389 113.651V120.015C5.73389 120.804 6.04715 121.56 6.60477 122.118C7.16239 122.675 7.91869 122.988 8.70728 122.988C9.49587 122.988 10.2522 122.675 10.8098 122.118C11.3674 121.56 11.6807 120.804 11.6807 120.015V113.651H5.73389Z" fill="#798E91"/>
<path d="M10.9271 155.793V149.43C10.9271 148.641 10.6139 147.885 10.0562 147.327C9.49862 146.77 8.74233 146.456 7.95374 146.456C7.16515 146.456 6.40885 146.77 5.85123 147.327C5.29361 147.885 4.98035 148.641 4.98035 149.43V155.793H10.9271Z" fill="#798E91"/>
<path d="M4.98035 156.628V162.989C4.98035 163.38 5.05726 163.766 5.20668 164.127C5.35611 164.488 5.57513 164.816 5.85123 165.092C6.12734 165.368 6.45512 165.587 6.81587 165.736C7.17662 165.886 7.56327 165.963 7.95374 165.963C8.34421 165.963 8.73086 165.886 9.09161 165.736C9.45235 165.587 9.78014 165.368 10.0562 165.092C10.3323 164.816 10.5514 164.488 10.7008 164.127C10.8502 163.766 10.9271 163.38 10.9271 162.989V156.628H4.98035Z" fill="#798E91"/>
</svg>
