<svg width="288" height="145" viewBox="0 0 288 145" fill="none" xmlns="http://www.w3.org/2000/svg">
<g opacity="0.14">
<path opacity="0.14" d="M75.1357 144.652C82.024 144.729 88.9123 144.781 95.7428 144.025C101.124 143.427 106.422 142.332 111.798 141.69C121.993 140.475 132.342 140.908 142.605 140.281C145.807 140.087 149.273 139.679 151.56 137.643C152.136 137.145 152.638 136.445 152.519 135.726C152.39 134.945 151.591 134.417 150.833 134.029C147.659 132.413 144.024 131.709 140.423 131.206C103.631 126.051 66.7374 139.544 29.5047 139.564C22.2031 139.564 14.8794 139.007 7.58057 139.415C6.32414 139.485 2.1691 139.33 1.45547 140.595C0.199045 142.81 4.33479 142.987 5.77583 143.084C20.6353 144.027 35.6656 143.997 50.5527 144.286C58.747 144.439 66.9413 144.561 75.1357 144.652Z" fill="black"/>
</g>
<path d="M104.436 51.9886C104.378 51.909 104.312 51.834 104.24 51.7646C103.565 51.1124 102.626 51.3165 101.876 50.8984C101.543 50.7117 101.152 49.7285 100.65 50.062C100.465 50.1865 99.8015 50.5598 99.1622 50.968C98.5202 51.1124 97.8837 51.2817 97.2335 51.3713C95.5803 51.5953 91.665 50.3184 91.0423 52.2823C90.8955 52.6568 90.8264 53.0525 90.8384 53.4497C90.8852 53.779 90.9933 54.0987 91.158 54.3955C91.2765 54.632 91.4004 55.0302 91.6594 55.1273C91.9184 55.2244 92.6403 55.0601 92.9379 55.0377L95.5031 54.856C96.3435 54.7963 97.3409 54.7963 97.8727 55.4011C97.9745 55.5423 98.0868 55.677 98.2089 55.8044C98.3701 55.9285 98.5576 56.0216 98.7599 56.0781C99.4858 56.3308 100.241 56.5087 101.011 56.6083C102.389 56.7701 103.728 55.3414 104.552 54.5947C104.771 54.4206 104.942 54.2023 105.05 53.9574C105.196 53.5517 105.009 53.1037 104.824 52.6955C104.721 52.4487 104.591 52.2119 104.436 51.9886Z" fill="#E5D1BD"/>
<path d="M73.1854 54.1616C74.0247 54.8009 74.9505 55.3412 75.9407 55.7695C76.7534 56.0546 77.5991 56.2559 78.4618 56.3694C83.7485 57.2024 89.1448 57.3023 94.4648 56.6656C94.7844 54.4378 94.6074 52.1748 93.944 50.0098C89.5327 49.6361 85.1598 48.9554 80.8645 47.9737C79.9743 47.8019 79.1121 47.5275 78.2993 47.1573C77.1475 46.5798 76.2576 45.6638 75.3979 44.7752L65.3713 34.3932C63.3544 32.3049 61.2383 30.1618 58.483 28.9645C50.768 25.6665 45.4117 33.5918 50.9306 38.7541C57.1246 44.5512 66.0877 49.2182 73.1854 54.1616Z" fill="#6E8E7C"/>
<path d="M3.21643 134.198C3.74821 134.93 4.46459 135.505 5.0873 136.162C7.89498 134.556 10.4905 132.913 12.8821 130.76C11.0085 130.345 10.8377 128.814 8.42676 130.156C7.647 130.591 4.54174 133.605 3.21643 134.198Z" fill="#E5D1BD"/>
<path d="M6.75137 135.423C7.18395 135.808 7.17018 136.207 7.10405 136.692C7.06547 136.973 6.91118 137.247 6.94975 137.531C6.99983 137.805 7.11445 138.066 7.2859 138.297C8.15108 139.679 10.5399 142.616 6.91118 142.559C3.60478 142.506 1.48593 138.133 0.347974 135.549C0.247639 135.391 0.202511 135.209 0.218473 135.027C0.271187 134.828 0.377167 134.644 0.527071 134.492C1.35367 133.588 2.35661 132.428 3.67366 133.289C4.22473 133.658 4.22473 134.33 4.82539 134.716C5.31584 135.032 6.31878 135.037 6.75137 135.423Z" fill="#4D4D4D"/>
<path d="M23.5837 86.6964C22.3742 92.4959 31.4144 99.2338 29.0944 103.814C24.2753 113.392 15.3921 121.133 8.00235 128.324C7.47608 128.836 5.79809 129.932 5.07068 130.564C6.36293 132.555 7.97755 134.036 9.75474 135.791C19.9743 129.7 37.0738 120.11 42.1988 114.676C49.156 107.318 51.6716 92.812 55.518 82.9354C56.1545 81.3001 57.1051 78.9529 56.0829 77.2777C55.2976 75.9983 54.0357 75.3362 52.399 74.7886C48.0208 73.2952 42.1409 70.4701 37.5478 72.5709C32.5524 74.8708 24.5123 82.2434 23.5837 86.6964Z" fill="#8C9193"/>
<path d="M69.1376 138.902C70.1185 139.084 71.1076 138.997 72.0885 139.094C72.8766 136.005 73.4965 132.976 73.5406 129.762C71.8158 130.783 70.5097 129.822 69.8485 132.451C69.6418 133.299 69.6831 137.573 69.1376 138.902Z" fill="#E5D1BD"/>
<path d="M72.7084 137.443C73.3229 137.443 73.6287 137.767 73.9676 138.148C74.166 138.367 74.2597 138.681 74.4911 138.875C74.7293 139.048 75.0148 139.161 75.3177 139.201C77.0398 139.587 81.0626 140.139 78.4395 142.437C76.0561 144.532 71.1103 142.815 68.2448 141.732C68.045 141.681 67.8647 141.581 67.724 141.443C67.6061 141.268 67.5362 141.069 67.5202 140.864C67.3686 139.709 67.1592 138.175 68.7711 137.929C69.4571 137.824 70.033 138.305 70.7687 138.178C71.3804 138.101 72.0967 137.443 72.7084 137.443Z" fill="#4D4D4D"/>
<path d="M43.5129 92.4137C48.23 96.6675 61.7228 99.7888 63.9188 104.685C64.7978 106.649 67.6964 121.17 68.1372 131.395C68.1703 132.124 67.7983 134.031 67.7901 134.997C70.3057 135.646 72.565 135.512 75.2763 135.684C77.2574 123.9 79.3073 103.269 79.3073 103.269C76.6264 92.9638 63.6819 81.1481 56.4987 71.8664C55.3084 70.3281 53.9197 68.2224 51.7844 67.9635C50.1449 67.7644 48.8527 68.2871 47.3758 69.1533C43.4385 71.4681 31.5272 75.1619 30.6537 79.7742C29.6894 84.8145 39.8841 89.148 43.5129 92.4137Z" fill="#8C9193"/>
<path d="M45.5407 28.5018C41.4352 31.7575 35.255 34.7245 32.789 39.267C26.8265 50.219 23.206 62.0023 21.3241 74.0295L19.6709 84.5832C19.1198 88.043 19.2631 88.847 22.4014 89.1008C28.2152 89.5738 40.2284 88.389 45.8548 86.4823C48.533 85.5763 51.1092 84.2422 53.859 83.6771C57.857 82.8558 61.5739 84.5085 65.4314 84.2671C65.0291 80.5708 64.1171 77.0686 64.0262 73.2678C63.9794 69.4649 64.1634 65.6625 64.5772 61.8778C65.222 55.2743 65.5581 48.6409 66.1588 42.0523C66.5914 37.3231 67.677 33.6392 64.1143 29.6517C62.1856 27.4837 58.1656 25.8683 54.9501 25.9181C51.539 25.9729 47.9626 26.5777 45.5407 28.5018Z" fill="#6E8E7C"/>
<path d="M64.4814 22.3213C63.2939 23.3344 61.7978 23.9965 60.4449 24.8278C59.092 25.6592 58.3867 26.5304 57.5959 27.7376C57.0228 28.6063 56.3284 29.1987 55.0224 28.9049C52.5426 28.3499 54.0002 26.8539 54.0387 25.3929C54.0828 23.7227 53.3031 22.1048 52.9779 20.4819C52.0439 15.7925 56.097 8.67868 62.2276 9.08689C68.9286 9.53243 68.0882 19.2423 64.4814 22.3213Z" fill="#E5D1BD"/>
<path d="M56.5015 14.2393C55.832 14.6326 55.46 15.4838 55.8347 16.1185C56.0331 16.4596 56.4023 16.696 56.631 17.0246C57.3006 17.9829 56.5208 19.2647 55.5289 19.9617C54.537 20.6586 53.3246 21.1539 52.6523 22.1172C49.3211 19.6729 46.7725 16.1285 46.53 12.2505C46.4461 10.8366 46.7043 9.42319 47.2868 8.10864C47.8692 6.7941 48.7618 5.61005 49.9025 4.63894C52.611 2.41371 55.3498 2.53567 58.8766 2.26436C60.2047 2.16231 61.5796 2.05279 62.8911 2.3465C64.0924 2.61532 64.9769 3.39192 66.0956 3.7379C67.9499 4.31038 71.0414 3.71301 72.4879 2.49336C73.3751 1.74664 73.8987 0.594196 75.0146 0.161098C76.1305 -0.272001 77.4448 0.210879 78.0895 1.09948C78.7343 1.98808 78.7287 3.18034 78.2438 4.1461C77.9269 4.77584 77.4172 5.32344 77.1417 5.95815C76.5107 7.29976 76.8055 8.90024 76.0781 10.1896C75.3066 11.5635 73.5983 12.2555 71.9672 12.7309C70.2809 13.2287 68.4459 13.6494 67.228 14.8989C67.4512 14.07 65.9798 12.2256 65.0072 12.0365C63.7508 11.7876 61.7587 13.0819 60.472 13.3607C59.221 13.627 57.6009 13.5996 56.5015 14.2393Z" fill="#534741"/>
<path d="M95.8724 49.8904L93.9023 38.3909L82.8121 39.1401L84.8318 50.9283L95.8724 49.8904Z" fill="#647381"/>
<path d="M104.602 100.849L102.632 89.347L91.7592 91.3732L93.7788 103.162L104.602 100.849Z" fill="#647381"/>
<path d="M64.1811 96.5082C48.8697 99.3606 33.9138 91.6072 31.7619 79.0548C29.61 66.5023 41.276 55.0252 56.8354 53.5616L84.2123 50.9879L82.1899 39.1823L54.6917 41.0441C49.1101 41.4111 43.6509 42.7029 38.5868 44.8549C33.6038 46.9586 29.1141 49.9067 25.3613 53.5392C21.573 57.1672 18.6896 61.4865 16.9052 66.2061C15.0723 71.0701 14.5693 76.2624 15.4392 81.34C16.309 86.4177 18.5259 91.2298 21.9006 95.3657C25.1757 99.3741 29.3619 102.703 34.1783 105.13C38.9748 107.566 44.2433 109.149 49.6991 109.795C55.2504 110.46 60.8898 110.197 66.3357 109.018L93.1726 103.293L91.1337 91.4877L64.1811 96.5082Z" fill="#891830"/>
<g opacity="0.13">
<path opacity="0.13" d="M48.9768 54.7042C46.853 55.0389 44.7663 55.5437 42.7415 56.2126C34.2661 59.1174 29.4967 66.1092 27.8876 73.7332C25.6475 84.3391 34.8448 95.8013 45.946 99.174C57.6203 102.723 69.9173 99.174 79.9688 93.5462C78.6352 94.2929 76.0975 94.4049 74.5601 94.7285C72.6754 95.1267 70.788 95.5051 68.8896 95.8386C65.1143 96.5335 61.2864 96.9703 57.4385 97.1454C51.7542 97.3594 45.7448 95.5574 41.1104 92.5804C36.1508 89.4044 32.635 84.6154 31.7009 79.1668C29.7143 67.5578 39.5371 56.8747 53.322 54.1741C51.8637 54.2767 50.413 54.4537 48.9768 54.7042Z" fill="black"/>
</g>
<g opacity="0.05">
<path opacity="0.05" d="M93.9027 38.3909L86.4413 38.8962L95.5779 48.1655L93.9027 38.3909Z" fill="white"/>
<path opacity="0.05" d="M95.7843 48.5637L86.1544 38.789L94.0181 38.2563L95.7843 48.5637ZM86.7248 39.0006L95.3627 47.7696L93.7812 38.5227L86.7248 39.0006Z" fill="white"/>
</g>
<g opacity="0.05">
<path opacity="0.05" d="M102.632 89.3472L94.4541 90.8705L104.225 98.6514L102.632 89.3472Z" fill="white"/>
<path opacity="0.05" d="M104.42 98.9699L94.1643 90.7983L102.753 89.1979L104.42 98.9699ZM94.7512 90.9427L104.031 98.3303L102.518 89.4966L94.7512 90.9427Z" fill="white"/>
</g>
<path d="M108.247 101.27L110.112 93.9769L126.674 91.4355L125.305 96.7795L138.737 95.0895L120.321 103.256L121.271 97.1852L108.247 101.27Z" fill="#F2D042"/>
<g opacity="0.05">
<path opacity="0.05" d="M108.247 101.27L110.112 93.9769L114.928 93.2377L108.247 101.27Z" fill="black"/>
</g>
<path d="M100.143 46.6496L102.009 39.3566L118.571 36.8127L117.204 42.1593L130.636 40.4667L112.217 48.6334L113.17 42.565L100.143 46.6496Z" fill="#F2D042"/>
<g opacity="0.05">
<path opacity="0.05" d="M100.143 46.6496L102.009 39.3565L106.825 38.6147L100.143 46.6496Z" fill="black"/>
</g>
<path d="M25.9705 75.4157C26.066 75.3792 26.1582 75.336 26.246 75.2862C27.0451 74.8133 26.9514 73.9571 27.508 73.3771C27.7559 73.1282 28.8856 72.9565 28.5825 72.4562C28.4723 72.272 28.161 71.6224 27.8028 70.9876C27.7339 70.4002 27.6347 69.8128 27.6292 69.2204C27.6127 67.727 29.5304 64.541 27.4859 63.6375C27.1021 63.4403 26.6821 63.3071 26.246 63.2442C25.8855 63.2251 25.5241 63.2613 25.177 63.3512C24.9014 63.411 24.4578 63.4458 24.3146 63.6549C24.1713 63.864 24.2567 64.5261 24.2374 64.7899C24.1878 65.5491 24.1355 66.3107 24.0859 67.0699C24.0363 67.829 23.8985 68.6878 23.1711 69.0412C23.0055 69.1052 22.8445 69.1784 22.6889 69.2602C22.5301 69.3774 22.4013 69.5243 22.3114 69.6909C21.9353 70.2829 21.6376 70.9128 21.4242 71.5676C21.0633 72.7325 22.4272 74.1761 23.127 75.0324C23.2862 75.2563 23.499 75.4451 23.7497 75.5849C24.1713 75.7865 24.6838 75.7069 25.1494 75.6198C25.4299 75.5763 25.7049 75.5079 25.9705 75.4157Z" fill="#E5D1BD"/>
<path d="M27.8737 47.6751C27.0967 48.3273 26.3115 48.9869 25.7521 49.8008C25.3303 50.4621 24.9973 51.1665 24.7602 51.8991C23.1306 56.4 22.2857 61.1025 22.2556 65.838C24.6065 66.5235 27.0842 66.7824 29.5462 66.5996C30.5528 62.8224 31.8906 59.1236 33.5469 55.5381C33.8546 54.7923 34.2706 54.0867 34.7841 53.4398C35.5666 52.5388 36.677 51.929 37.7626 51.3391L50.393 44.4667C52.9334 43.0853 55.5537 41.6366 57.2235 39.4213C61.8497 33.2832 53.986 27.1377 47.6322 31.0207C40.4904 35.3815 34.2055 42.3684 27.8737 47.6751Z" fill="#6E8E7C"/>
<path opacity="0.14" d="M191.427 133.862C190.121 134.317 188.779 135.139 189.372 135.938C189.683 136.356 190.435 136.605 191.163 136.801C197.285 138.449 204.388 138.223 211.18 138.21C227.96 138.175 245.071 139.629 261.327 137.317C262.03 137.217 262.801 137.068 263.148 136.722C263.898 135.95 262.065 135.208 260.572 134.952C242.952 131.903 222.838 132.366 204.609 132.51C199.842 132.548 195.69 132.373 191.427 133.862Z" fill="black"/>
<path d="M197.181 85.646C212.368 71.9266 212.368 49.683 197.181 35.9636C181.994 22.2441 157.371 22.2441 142.184 35.9636C126.997 49.683 126.997 71.9266 142.184 85.646C157.371 99.3655 181.994 99.3655 197.181 85.646Z" fill="#F6D738"/>
<path d="M169.682 90.619C187.91 90.619 202.686 77.2708 202.686 60.8049C202.686 44.3391 187.91 30.9908 169.682 30.9908C151.455 30.9908 136.679 44.3391 136.679 60.8049C136.679 77.2708 151.455 90.619 169.682 90.619Z" fill="#F3CC30"/>
<path d="M187.62 35.74C191.488 41.5112 193.076 48.2971 192.124 54.9889C191.171 61.6808 187.734 67.883 182.375 72.5823C177.016 77.2817 170.052 80.2003 162.619 80.8615C155.186 81.5226 147.725 79.8871 141.454 76.2222C144.026 80.0557 147.521 83.316 151.681 85.7606C155.84 88.2052 160.556 89.7712 165.477 90.3421C170.399 90.913 175.4 90.474 180.108 89.058C184.816 87.6419 189.11 85.2851 192.67 82.163C196.231 79.0408 198.966 75.2336 200.673 71.0246C202.38 66.8156 203.014 62.3131 202.529 57.852C202.043 53.3909 200.451 49.0862 197.87 45.2578C195.288 41.4295 191.785 38.1762 187.62 35.74Z" fill="#EDBD31"/>
<path d="M142.396 62.943C142.544 57.4504 144.592 52.1375 148.252 47.7493C151.912 43.361 157 40.1176 162.803 38.4737C168.607 36.8299 174.834 36.8681 180.612 38.5829C186.39 40.2977 191.429 43.6033 195.023 48.0359C193.122 44.8611 190.52 42.0733 187.376 39.8457C184.232 37.6182 180.615 35.9986 176.749 35.0875C172.883 34.1764 168.851 33.9933 164.904 34.5497C160.956 35.106 157.177 36.3899 153.802 38.3215C150.427 40.2531 147.528 42.7911 145.285 45.7778C143.042 48.7645 141.503 52.1361 140.763 55.683C140.024 59.2299 140.1 62.8763 140.986 66.3955C141.873 69.9148 143.551 73.2317 145.917 76.14C143.481 72.0968 142.266 67.545 142.396 62.943Z" fill="#F7DB5E"/>
<path d="M184.875 56.5264H153.272V58.3383H184.875V56.5264Z" fill="#D49A34"/>
<path d="M278.055 62.5125L278.832 65.0712C275.689 66.2451 272.443 67.1793 269.128 67.8639C269.367 66.5447 268.364 65.0214 270.56 64.2747C271.266 64.0333 278.104 62.6817 278.055 62.5125Z" fill="#E5D1BD"/>
<path d="M279 66.2336C279.207 66.3789 279.445 66.483 279.7 66.5392C279.954 66.5954 280.219 66.6024 280.477 66.5597C280.794 66.4856 281.119 66.4381 281.447 66.4178C281.742 66.4446 282.025 66.5351 282.273 66.6817C283.585 67.3437 287.007 69.7033 287.142 66.1838C287.263 62.983 281.97 61.2058 279.347 60.2351C279.177 60.1578 278.985 60.1275 278.796 60.148C278.568 60.2118 278.361 60.3245 278.193 60.4765C277.173 61.2705 275.6 62.4677 276.636 63.4633C277.077 63.8915 277.843 63.9985 278.289 64.4863C278.622 64.8871 278.658 65.9773 279 66.2336Z" fill="#4D4D4D"/>
<path d="M227.798 51.369C232.498 53.858 235.287 57.8878 239.676 60.7702C248.159 66.3457 273.437 62.2835 273.437 62.2835C273.437 62.2835 274.305 67.3811 274.015 68.0084C268.411 70.5123 249.146 76.6603 239.023 73.6436C229.151 70.6982 219.423 67.3562 209.838 63.6176C208.086 62.9332 206.146 62.0695 205.507 60.5611C205.014 59.4062 205.444 58.194 205.926 57.1063C207.224 54.1965 209.251 48.7181 213.12 47.6652C217.349 46.5178 224.191 49.4499 227.798 51.369Z" fill="#304956"/>
<path d="M268.087 99.179C267.809 100.122 267.534 101.063 267.26 102.004C263.544 101.546 259.878 100.806 256.299 99.7938C257.341 98.6588 257.321 96.7074 259.881 97.0981C260.688 97.2226 268.026 99.3657 268.087 99.179Z" fill="#E5D1BD"/>
<path d="M266.747 103.572C266.883 103.802 267.071 104.004 267.298 104.164C267.526 104.324 267.789 104.439 268.069 104.501C268.425 104.555 268.775 104.638 269.114 104.75C269.393 104.897 269.63 105.102 269.803 105.349C270.789 106.547 273.048 110.328 274.947 106.828C276.669 103.659 272.244 99.7017 270.086 97.6682C269.951 97.5171 269.769 97.4062 269.563 97.3496C269.303 97.3218 269.039 97.3508 268.794 97.4342C267.37 97.8175 265.193 98.3726 265.733 99.8063C265.962 100.419 266.681 100.839 266.876 101.509C267.039 102.064 266.529 103.174 266.747 103.572Z" fill="#4D4D4D"/>
<path d="M226.569 61.3675C229.55 66.368 229.639 71.8341 232.055 77.0487C236.725 87.127 264.325 96.7747 264.325 96.7747C264.325 96.7747 261.807 102.271 261.11 102.729C253.927 102.169 230.87 97.8176 222.894 89.3796C215.101 81.1407 207.724 72.5949 200.76 63.7421C199.484 62.1192 198.148 60.22 198.512 58.388C198.787 56.9817 200.016 56.0209 201.215 55.2095C204.419 53.0415 210.032 48.7379 214.553 49.7907C219.482 50.9382 224.279 57.5243 226.569 61.3675Z" fill="#304956"/>
<path d="M179.579 28.8702L182.525 25.7788C181.707 24.9851 180.82 24.251 179.874 23.5834C180.475 22.5205 181.064 21.1913 180.323 20.2007C180.069 19.9013 179.762 19.6422 179.414 19.434L175.262 16.6462C174.806 16.2968 174.279 16.0321 173.71 15.8671C172.696 15.6382 171.641 16.0638 170.773 16.589C168.569 17.9281 166.872 20.0737 166.585 22.4807C166.479 23.1181 166.56 23.7695 166.819 24.3699C167.263 25.276 168.247 25.846 169.181 26.3612L171.76 27.7999C172.749 28.3525 173.939 28.9225 175.014 28.5218C175.584 28.3102 176.03 27.8447 176.637 27.7377C177.703 27.5535 178.557 28.5218 179.579 28.8702Z" fill="#EACDB0"/>
<path d="M156.914 27.2423C156.438 27.1231 155.952 27.0333 155.462 26.9734C154.401 26.849 153.308 26.9013 152.28 26.6349C151.252 26.3686 150.249 25.6717 150.136 24.7109C150.062 24.0911 150.368 23.4862 150.712 22.9461C151.86 21.1585 153.516 19.6805 155.509 18.6649C157.399 17.7066 159.366 17.1142 160.358 15.2822C161.284 13.5573 162.532 12.8628 164.547 12.0464C166.726 11.1703 169.04 9.41546 171.294 8.88778C172.246 8.69056 173.236 8.7068 174.179 8.93507C175.817 9.31145 177.305 10.0956 178.474 11.1983C179.644 12.3011 180.446 13.6781 180.792 15.1727C180.927 15.8446 180.996 16.5259 180.999 17.2088C181.023 18.6201 181.084 20.34 180.321 21.5273C179.398 20.696 177.419 17.2635 175.959 17.1889C173.636 17.0694 171.443 19.6954 170.302 21.1988C169.06 22.8366 168.721 25.027 167.401 26.5702C166.45 27.6779 164.513 28.4072 163.02 28.7009C161.177 29.0668 158.664 27.6679 156.914 27.2423Z" fill="#3A3029"/>
<path d="M186.322 22.0127C195.952 20.7905 206.306 29.694 214.021 33.9776C219.29 36.9098 225.822 39.9166 231.33 37.3678C234.887 35.7225 236.813 32.2104 238.378 28.8875C239.982 33.1189 241.492 38.0971 238.704 41.7983C236.648 44.5363 232.802 45.6912 230.352 48.143C227.713 50.7888 226.77 54.8485 223.337 56.6058C220.736 57.94 217.454 57.5218 214.644 58.4527C210.302 59.8889 208.056 64.0905 205.91 67.7917C205.287 68.8695 204.504 70.0319 203.207 70.3555C201.554 70.7736 199.92 69.6087 198.798 68.414C193.731 62.9579 192.511 55.7197 189.389 49.3775C186.584 43.685 180.517 40.5712 177.781 34.7318C175.852 30.6224 177.304 26.147 181.415 23.6654C182.889 22.783 184.568 22.2176 186.322 22.0127Z" fill="#8EB3BA"/>
<path d="M146.978 31.1601L149.472 30.2466C149.728 30.152 150.375 29.7637 150.599 30.1022C150.706 30.269 151.122 30.7992 151.502 31.3467C151.976 31.6927 152.436 32.0561 152.943 32.3648C154.225 33.1438 157.851 33.562 157.685 35.3243C157.68 35.6667 157.6 36.0049 157.451 36.3199C157.302 36.5587 157.103 36.7699 156.867 36.9421C156.691 37.0865 156.454 37.3503 156.206 37.3354C155.958 37.3205 155.431 36.9247 155.194 36.8003L153.161 35.725C152.497 35.374 151.681 35.0131 151.042 35.2919C150.91 35.3664 150.772 35.4313 150.629 35.486C150.449 35.5271 150.261 35.5322 150.078 35.501C149.39 35.4319 148.712 35.2968 148.055 35.0978C147.46 34.9111 147.347 34.4904 147.069 34.0324C146.744 33.4973 146.143 33.2285 145.81 32.7058C145.709 32.5696 145.65 32.4118 145.638 32.2483C145.627 32.0849 145.663 31.9216 145.744 31.7749C145.926 31.5739 146.171 31.4273 146.446 31.3542L146.978 31.1601Z" fill="#EACDB0"/>
<path d="M171.694 43.6202C169.953 43.7668 168.197 43.5846 166.538 43.0851C161.882 41.7954 157.45 39.9184 153.374 37.5096C153.861 35.6786 154.785 33.966 156.082 32.4916C159.783 33.794 163.584 34.8489 167.456 35.6478C169.343 36.0361 171.06 36.1107 172.49 35.0081C175.668 32.5611 178.617 29.8812 181.307 26.9958C181.899 26.3611 182.495 25.7015 183.313 25.2883C184.812 24.5416 186.895 24.7532 188.485 25.6343C190.046 26.5474 191.222 27.9079 191.824 29.4973C192.262 30.5925 192.452 31.7872 192.05 32.8227C191.648 33.8581 190.639 34.6721 189.65 35.3789C185.174 38.5603 180.184 41.1014 174.854 42.9133C173.839 43.2709 172.776 43.5085 171.694 43.6202Z" fill="#8EB3BA"/>
<path d="M178.758 73H175.443L161.788 52.0308H161.651C161.834 54.4917 161.925 56.7476 161.925 58.7983V73H159.242V48.0146H162.523L176.144 68.8984H176.28C176.257 68.5908 176.206 67.6053 176.126 65.9419C176.047 64.2671 176.018 63.0708 176.041 62.353V48.0146H178.758V73Z" fill="#E89F40"/>
<path d="M155.807 64.5063H182.193V66.2495H155.807V64.5063Z" fill="#E89F40"/>
</svg>
